<svg width="164" height="48" viewBox="0 0 164 48" fill="none" xmlns="http://www.w3.org/2000/svg">
<g clip-path="url(#clip0_1_668)">
<path fill-rule="evenodd" clip-rule="evenodd" d="M163.66 25.5354C163.66 25.0914 163.472 24.712 163.313 24.3632C163.125 24.0792 162.745 23.7925 162.745 23.3488L162.999 22.6208C162.999 22.0501 162.557 21.4485 162.367 20.9424L161.704 18.9466C161.421 18.2805 161.074 17.5834 160.727 17.0128C160.159 16.1248 159.149 15.9981 158.709 15.6496L158.267 14.7306C157.162 14.0666 155.964 13.3362 154.733 12.8304C154.386 12.7346 153.818 12.6392 153.44 12.4816C153.188 12.3861 152.715 12.1976 152.715 12.1976C152.463 12.133 152.368 12.0066 152.147 11.849C151.705 11.5005 151.232 11.1184 150.412 11.1184C149.97 11.1184 149.687 11.2784 149.307 11.3717C149.054 11.436 148.772 11.436 148.646 11.436L147.826 11.2786C147.541 11.1186 147.541 11.1186 147.258 11.1186C146.721 11.1186 145.806 11.2141 145.332 11.4672C145.142 11.5626 144.859 12.0066 144.703 12.0688C144.703 12.0688 143.88 11.9112 143.502 11.9112C143.029 11.9757 141.957 12.1642 141.957 12.1642C140.631 12.8613 139.055 14.0024 137.824 14.9525C137.508 15.2058 137.729 15.7141 137.477 15.9362C137.225 16.1581 136.5 16.0626 136.31 16.2202C135.395 17.1082 134.575 18.4381 134.102 19.5146C134.102 19.5146 133.598 21.7658 133.503 21.9234C133.313 22.2098 133.092 22.6514 133.061 22.8426C133.061 22.8426 132.588 23.6661 132.336 24.0458C131.989 24.7765 131.894 25.3469 131.799 25.6309L131.863 26.9941C131.863 27.4693 132.115 27.7221 132.115 27.7221C132.115 28.1973 131.83 28.6101 131.768 28.7989C131.673 29.1808 131.578 29.465 131.578 29.909C131.578 30.2576 132.398 34.3757 132.398 34.3757C132.84 35.7698 133.565 36.7845 134.228 37.861C134.67 38.6226 135.112 39.3509 135.49 40.0789C135.585 40.2698 135.742 40.6184 135.773 41.0624C135.932 41.6952 136.027 42.3301 136.405 42.8053C137.477 43.7866 138.613 44.7365 140.317 45.3714L141.389 45.529C141.641 45.529 142.587 45.5602 142.682 45.6557C142.682 45.6557 142.872 46.0997 143.155 46.3528C143.628 46.7968 144.417 47.3362 144.417 47.3362C145.679 47.5896 147.225 47.6205 147.697 47.6205C148.044 47.6205 148.361 47.5248 148.803 47.4317C149.086 47.2408 149.466 47.2717 149.718 47.2408C150.096 47.1762 150.507 46.8277 151.358 47.3362C151.514 47.4317 151.736 47.4317 151.895 47.4317C152.903 47.4317 154.638 46.4482 157.794 44.7698C157.887 44.7698 158.141 44.4834 158.172 44.4834L158.897 44.2304C159.56 43.9464 160.601 43.6597 161.2 42.7408C162.557 40.4274 162.935 39.6994 162.935 37.6392C162.935 36.72 162.683 36.0872 162.272 35.5477C161.516 34.6288 160.285 34.7888 159.182 34.7888H158.835C158.676 34.7888 157.668 34.7888 157.383 35.4213C157.383 35.4213 156.373 36.6266 155.743 37.324C155.175 38.052 155.175 38.3053 154.733 38.8112C154.481 39.0666 153.977 39.3509 153.756 39.6373C153.566 40.0168 152.936 40.5541 152.936 40.5541C152.494 40.9026 151.862 40.745 151.296 40.8093C151.011 40.8714 150.728 40.8714 150.473 40.9026C150.286 40.9981 149.749 41.189 149.497 41.2845C149.245 41.3778 148.677 41.2845 148.612 41.2845C148.52 41.2845 148.33 41.22 148.078 41.029C147.605 40.6805 147.351 40.5874 146.816 40.5874C146.248 40.5874 145.332 40.3965 145.332 40.3965C145.05 40.048 144.669 39.6685 144.166 39.2242C143.788 38.8757 143.124 39.0978 142.621 38.9402C141.168 38.2741 140.726 36.5936 140.726 36.5936C140.726 36.5936 140.538 35.8653 140.538 35.6122C140.474 35.2637 140.253 34.3445 140.253 34.3445C140.063 33.805 139.906 33.521 139.906 32.6973C139.906 32.6973 141.073 32.0314 141.611 32.0314C141.706 32.0314 141.957 32.0957 142.178 32.1269C142.461 32.1888 142.746 32.3178 143.093 32.3178C143.441 32.3178 143.754 32.1269 144.071 32.0314C144.261 31.9693 144.608 31.8738 144.608 31.8738C144.954 31.8738 145.268 31.8738 145.523 32.0312C145.711 32.1269 145.996 32.3178 146.343 32.3178C146.69 32.3178 146.911 32.1269 147.541 31.8738C147.888 31.5872 148.551 31.4298 148.738 31.4298C148.738 31.4298 150.759 31.5872 151.579 31.7138C153.376 31.9048 154.229 32.0002 154.576 32.0002C154.859 32.0002 155.144 31.9048 155.933 31.7138C156.373 31.5562 157.005 31.4298 157.005 31.4298C157.352 31.4298 157.887 31.5253 158.077 31.5872C158.455 31.7784 158.835 31.8738 159.056 31.8738C160.506 31.8738 162.683 30.6061 162.873 28.768C162.935 28.1973 163.439 27.6266 163.693 26.8677C163.881 26.2016 163.66 25.8218 163.66 25.5354ZM132.02 22.4608C132.02 21.9856 131.925 21.544 131.673 21.0688C131.609 20.7202 131.483 20.4026 131.483 20.1474C131.421 19.9586 131.421 19.6101 131.421 19.3237C131.483 18.6936 131.483 17.9629 131.357 17.2325C131.105 16.6021 130.789 16.1248 130.475 15.7738C130.316 15.6805 130.19 15.5205 130.19 15.4277C130.033 15.2368 129.907 15.048 129.748 14.7949C129.087 13.4962 128.203 12.0352 127.226 11.9757C126.784 11.9757 126.468 12.1618 126.216 12.3242L125.648 12.2264C125.175 11.9445 124.923 11.7536 124.638 11.7536C124.103 11.7536 122.242 12.2264 121.548 12.4794L120.473 13.2432C120.317 13.3365 120.221 13.9069 120.221 13.9069C120.221 13.9069 119.779 13.7805 119.684 13.7805C119.245 13.8736 118.204 13.8736 117.792 14.413C117.792 14.413 117.319 14.9501 117.129 15.1746C116.309 15.9981 116.153 16.2848 115.553 16.2536C115.173 16.2536 115.08 16.1869 114.826 14.9837C114.638 13.8138 114.26 11.88 111.893 11.849C111.358 11.7824 110.79 11.7824 110.505 11.7824L109.528 12.3242C109.181 12.3242 108.77 11.4026 108.14 11.689L104.385 11.9445C103.817 11.849 103.187 11.5936 102.776 11.6245C102.208 11.6557 101.956 12.0352 101.735 12.0688C100.19 12.4482 99.2128 14.0024 99.1797 15.2056C99.1178 16.2178 99.9068 17.2037 100.38 17.741C100.758 18.185 102.082 19.4837 103.565 19.5482C104.007 19.5482 104.385 19.3546 105.017 19.073C105.205 18.9752 105.49 18.7866 105.49 18.7866C105.49 18.7866 107.194 19.6101 107.95 20.2453C108.518 21.353 108.423 22.6541 108.392 24.0146C108.328 24.4565 108.328 24.9338 108.328 25.4733L108.266 28.608V31.6517L108.107 32.7618C107.95 33.2346 107.919 33.9341 107.95 34.5021C107.95 34.9461 108.014 35.6768 108.14 36.3069C108.202 36.5002 108.297 36.9442 108.297 37.0376C108.297 37.0376 107.95 39.2528 107.729 39.9834C107.541 40.3653 106.973 40.6496 106.467 40.905C106.279 40.9981 105.994 41.189 105.994 41.189C106.058 41.1269 105.238 40.9336 105.238 40.9336C104.67 40.7762 104.354 40.745 104.164 40.745C103.534 40.6829 101.357 41.0936 101.262 43.5642C101.262 44.4522 101.452 45.1184 101.894 45.4981C101.894 45.4981 102.902 46.9568 103.629 46.9568C103.976 46.9568 104.259 46.7968 104.984 46.5128C105.238 46.3528 105.426 46.5722 105.426 46.5722C105.426 46.5722 105.963 46.3837 106.089 46.4149C106.467 46.7013 106.909 46.7658 107.256 46.7658C107.603 46.7658 108.076 46.8589 108.549 46.7013C108.739 46.6392 109.464 46.2906 109.464 46.2906C110.158 46.7013 110.757 47.0498 111.104 47.0832H114.387C114.826 47.0832 115.268 47.0832 115.867 46.7968C116.122 46.7013 116.152 46.3837 116.248 46.3528L117.068 46.7013C117.407 46.8552 117.769 46.952 118.139 46.9877C118.582 46.9877 118.959 46.8277 119.307 46.7346L120.031 46.6392C120.19 46.5725 120.568 46.4458 120.854 46.4792H121.579C123.028 46.3837 124.103 44.2592 124.134 43.3757C124.134 42.645 123.756 41.917 123.249 41.4421C122.872 40.905 122.242 40.6184 121.674 40.5541C121.293 40.5541 120.947 40.6496 120.599 40.745C120.412 40.8069 119.718 40.905 119.718 40.905C119.15 40.8381 117.414 40.8381 116.625 40.6184C115.741 40.2698 114.7 39.3509 114.165 38.8136C113.88 38.1762 114.07 36.6269 114.165 35.7698C114.165 35.4213 114.26 35.1992 114.26 34.8818L114.322 33.965C114.417 32.7904 114.479 30.6061 114.479 30.6061C114.479 30.6061 114.479 29.94 114.417 29.7824C114.417 29.5914 114.322 29.4029 114.322 29.3074C114.322 29.1165 114.039 27.7533 114.574 27.4072C114.921 27.1205 114.826 26.6456 115.207 26.328C116.404 25.44 116.908 24.9338 117.476 23.6661C117.73 23.129 118.044 22.3056 118.044 22.3056C118.329 21.9568 119.623 21.1333 120.443 20.4026C120.82 19.8656 120.98 19.832 121.358 19.5792C121.8 19.1973 122.334 19.1352 122.334 19.1352L122.525 19.6101C122.525 19.8656 122.429 20.0853 122.334 20.2762C121.988 21.1 121.895 21.637 121.895 22.081C121.83 23.1912 123.535 25.44 124.512 26.013C124.954 26.2637 125.427 26.3901 125.869 26.4522L126.059 26.5501C126.406 26.8365 126.689 27.1208 127.162 27.1208C127.54 27.1208 128.046 26.8674 128.36 26.4522C128.707 26.0725 129.087 26.4522 129.275 26.0725C129.275 26.0725 129.717 25.5045 130.159 25.3136C130.601 25.0602 130.915 24.836 131.262 24.3944C131.83 23.8264 132.02 23.0026 132.02 22.4608ZM100.917 43.28C100.917 40.3341 98.5521 40.1432 97.0999 40.0477C96.6578 39.9856 96.1849 39.9856 96.0278 39.8901C95.5549 39.6992 95.1439 39.3194 95.1439 38.9709C95.1439 38.9709 95.3005 38.2429 95.3957 37.8608C95.6478 36.8794 95.4907 36.4048 95.4907 36.1181C95.4907 35.7386 95.6476 35.2944 95.3957 34.6618C95.3339 34.4709 95.3007 34.2824 95.2389 34.1869C95.2389 34.1869 95.3339 33.8072 95.3957 33.5208C95.4907 33.2365 95.5549 32.9501 95.5549 32.6328C95.5549 32.0954 95.3649 31.556 95.1747 31.0808C95.1128 30.9234 95.0818 30.7968 95.0178 30.7013L94.956 29.9397C95.0178 29.7512 95.0178 29.7512 95.0178 29.369C95.0178 29.085 94.956 28.388 95.1128 28.1016C95.2078 27.944 95.2697 27.753 95.3649 27.6264C95.6168 27.2469 95.902 26.7074 95.902 26.2658C95.902 26.2658 96.2489 21.2261 96.2489 20.7845V20.436C96.3107 19.548 96.3107 18.5333 96.1849 17.805V17.996C96.1849 17.5186 95.9947 17.1701 95.8378 16.917L95.776 16.3464C95.7118 15.365 95.7118 14.2552 94.8918 13.7802C93.9768 13.2096 92.3676 13.0522 91.9897 13.0522C91.7044 13.0522 91.4218 13.1162 91.0747 13.1474C90.8226 13.1474 90.6326 13.0829 90.5068 13.0829C90.5068 13.0829 90.1286 12.9874 89.8768 12.8944C89.2444 12.5458 88.8665 12.3549 88.4889 12.3549C88.1083 12.3549 88.0157 12.768 87.6689 12.9565C87.4786 13.021 86.7844 12.7992 86.7536 12.7992L85.9336 12.608C85.3965 12.4506 85.1112 12.3549 84.8283 12.3549C83.4712 12.3549 80.3481 15.7448 80.3481 17.2346C80.3481 17.8053 80.6002 18.3448 81.0752 18.8197C81.9881 19.7389 83.4715 20.1805 84.1986 20.1805C84.7333 20.1805 85.2707 19.9274 85.3965 19.9274L86.5944 20.6245L87.0365 20.72C87.3218 20.8154 87.4786 20.8776 87.7615 20.8776C87.9207 20.9421 88.3936 20.973 88.4886 21.0376L88.8357 21.7013C88.8357 21.7013 88.8976 22.2408 88.2036 22.6202L87.8565 22.8112L87.6997 23.1909C87.5094 24.0144 87.8873 24.745 88.1726 25.2202C88.2676 25.3776 88.4554 25.8528 88.4554 25.9482L88.2033 27.056C88.0468 27.6266 87.9207 28.2613 87.9515 28.8941L88.3294 29.8776C88.4244 30.0664 88.6147 30.4482 88.6147 30.4482C88.6147 30.4482 87.8565 33.1722 87.2576 34.2178C86.7204 35.2013 85.9954 36.056 85.2704 36.9752C84.8283 37.5122 84.3554 38.0829 83.9133 38.6845C83.5662 39.224 82.6512 40.4917 82.0212 40.4917H81.8312C80.0344 40.4917 79.4331 40.3962 79.4331 40.3962C78.4252 39.921 77.7312 39.0976 76.9112 38.0208L76.847 37.9562C76.3741 37.3237 76.4691 35.2944 76.5002 34.3754C76.5002 34.0269 76.5641 33.6162 76.5952 33.1722C76.752 32 76.7852 31.3338 76.657 30.8589V30.7634C76.4691 30.2882 76.2173 30.0042 76.027 29.7821C75.8704 29.6248 75.8704 29.6248 75.8704 29.4336C75.8704 29.1805 76.4049 27.0248 76.4049 27.0248C76.4691 27.0248 76.9423 26.3922 76.9731 26.3589L77.2252 25.5997C77.3844 25.0602 76.9423 24.616 76.5644 24.1101C76.3741 23.8568 76.2173 23.5728 76.1223 23.3821L76.027 23.0024V21.8301C76.027 20.9421 76.1838 20.6554 76.3741 20.245C76.6262 19.8008 76.9112 19.2613 76.9112 18.249C76.9112 17.4877 76.752 16.1578 76.3433 15.5874C76.153 15.3008 75.9628 15.2386 75.7109 15.0168C74.4488 13.6226 72.9681 12.7344 71.2638 12.7344C70.9788 12.7344 70.6959 12.8301 70.1588 12.9256C69.9709 12.9874 69.7502 13.4005 69.6238 13.4005L68.5191 12.8613C67.8557 12.6728 67.5088 12.5773 67.2259 12.5773C66.7838 12.5773 64.1028 13.5584 64.1028 15.1125C64.1028 15.6496 64.0388 16.4112 63.9462 17.0128C63.8817 17.488 63.8817 17.7408 63.8817 17.9008C63.8817 18.5336 64.2288 19.1994 64.892 19.8968C65.5551 20.6248 66.8149 21.4485 67.7299 21.4485C68.2028 21.4485 68.488 21.2597 68.7091 21.1C68.9612 20.9424 69.5909 22.3986 69.5909 25.409L69.6859 26.9632C69.7501 28.0709 69.8452 28.9898 69.8452 28.9898C69.7812 29.0544 69.7501 29.3384 69.6859 29.3696C69.5909 29.625 69.5294 29.8445 69.5294 30.2576V35.9608C69.5294 36.5957 69.907 36.9445 69.907 37.324L70.1591 38.052C70.2541 38.4962 70.4441 39.1621 70.4441 39.1621C70.4441 39.2242 73.8194 47.1141 77.2586 47.1141C77.5415 47.1141 77.9194 47.0498 78.2352 47.0189C78.3923 46.9568 78.6133 46.5746 78.7083 46.5746C78.7083 46.5746 79.0554 47.0498 79.2454 47.1144C79.6875 47.2717 80.0654 47.3984 80.4125 47.3984C80.7904 47.3984 81.1683 47.241 81.6104 47.1144C81.8007 47.0498 82.0525 46.9232 82.1475 46.9232L82.7775 47.0832C83.1578 47.1786 83.5047 47.272 83.7875 47.272C84.2297 47.272 84.451 47.272 84.7978 47.1144L84.9547 46.9568C85.3325 46.6704 85.8389 46.3861 86.3118 46.0688C86.8797 45.689 87.6997 45.0541 87.6997 45.0541C88.0468 44.8008 88.7718 44.4834 88.9928 44.1682C89.1497 43.9773 89.2449 44.0728 89.2449 44.0728C89.2449 44.0728 89.4349 44.3261 89.4968 44.548C89.5918 44.801 89.656 44.992 89.751 45.1186L89.9078 45.3714L90.0981 45.4672C90.381 45.6245 91.2652 45.7512 91.5478 45.9421C92.7457 46.5746 93.126 46.7013 93.3781 46.7013C93.661 46.7013 94.0413 46.608 94.1339 46.5437L95.1131 46.8922C95.9949 47.1786 96.311 47.3362 96.5963 47.3362C97.4163 47.3362 97.6041 46.9232 98.4241 45.9112L98.9613 45.8466C98.9613 45.8466 99.1513 45.4672 99.3081 45.4672C99.8763 45.4672 100.223 45.1805 100.413 44.9274C100.696 44.5168 100.917 44.0085 100.917 43.2802L100.917 43.28ZM30.4008 39.6586C30.3515 39.631 30.3027 39.6024 30.2545 39.5728C29.7814 39.3173 29.6222 39.697 29.2135 39.4773C28.6761 39.2218 28.5811 39.384 28.2982 39.444C27.6043 39.5728 27.9824 39.697 27.5401 39.9525C27.0361 40.2389 26.9722 40.9645 26.9722 40.9645C26.9722 40.9645 26.0261 41.5376 25.9643 40.5205L25.679 39.7637C25.5224 39.2218 24.9543 38.7493 25.2369 38.5584L25.8051 37.4816C25.8693 37.1018 26.0903 36.8154 25.9951 36.4024C25.8051 36.0562 25.7101 35.641 25.6482 35.4834C25.6482 35.4834 25.4272 34.693 25.5222 34.5357C25.7743 34.156 25.9951 34.156 25.9951 33.7717C25.9001 33.0125 25.8051 32.4754 26.0903 31.6805C26.3424 31.1456 25.8382 30.2266 25.8382 30.2266C25.9951 29.3386 26.3732 29.465 26.3114 28.0373C26.2472 27.4693 26.5943 26.9272 26.1522 26.4234C26.1522 26.4234 25.9001 26.137 25.9951 26.0416L26.3116 25.44C26.4043 25.0605 26.3735 24.6162 26.1832 24.1389L25.9003 23.7594L25.9314 23.1912C26.1214 22.6541 25.9953 22.2098 25.9953 21.797C25.8695 20.7202 24.5764 18.345 24.5764 18.345C24.2295 17.9629 24.1035 17.488 23.7564 17.2325C23.5022 17.1082 23.1885 17.0773 23.155 16.9818C23.0624 16.9506 23.0293 16.5664 23.0293 16.4733C22.7772 16.0293 22.4945 15.7141 21.9572 15.492C21.9572 15.492 21.2324 15.0813 20.8853 15.048C20.6332 15.017 20.3482 14.9501 20.1582 14.857L19.8111 14.5706C19.6232 14.2245 19.2761 14.0954 18.834 14.0026C18.834 14.0026 18.2969 13.9069 17.824 13.9402C17.5411 13.9402 17.2561 13.8448 17.004 13.9069C16.909 13.9714 16.8472 13.9714 16.8161 13.9714L16.2148 13.7469C15.7111 13.4653 15.49 13.4296 15.1121 13.4653C14.4798 13.4653 14.2587 13.9402 13.85 14.2888C13.7548 14.3821 12.904 14.3821 12.7779 14.3509C12.5258 14.32 12.3977 14.253 12.0508 14.2888C11.7037 14.2888 11.4519 14.3509 10.6958 14.697C10.4108 14.7949 9.81187 14.7949 9.81187 14.7949C9.81187 14.7949 9.36976 14.857 9.18188 14.8237C8.8016 14.733 8.14082 14.604 7.85555 14.604C7.32082 14.604 7.13082 15.2986 6.3416 15.6808C6.15133 15.8408 5.80449 15.7786 5.55238 15.9362C5.45738 15.9981 5.26976 16.5378 5.17449 16.6021C4.35449 17.2037 4.16449 18.0274 3.47054 17.932C3.34449 17.932 2.74554 18.3114 2.65054 18.4045C2.08238 18.9154 1.70449 19.5482 1.70449 19.5482C1.3266 20.0517 1.07449 20.9088 1.07449 21.3218C1.07449 21.3864 1.04132 21.668 1.04132 21.7658C1.04132 23.129 1.07449 24.7765 1.51421 25.7909C1.83054 26.6146 3.53449 27.8821 4.41632 27.8488C4.67082 27.8488 4.73238 27.6266 4.98422 27.6266C5.23898 27.6266 5.4266 27.4381 5.55238 27.7533C5.55238 27.7533 5.80449 27.8488 5.93266 27.8821C6.31082 27.9754 6.65766 28.0709 6.94054 28.0373C7.69871 28.0064 8.99187 26.4856 9.05583 25.9485C9.18188 25.156 9.30793 23.8573 9.27449 23.4776C9.27449 22.9048 8.96082 22.525 8.77081 22.3362C8.58054 22.1122 8.48793 22.1122 8.45449 21.7658C8.45449 21.3218 8.83477 21.1333 8.86582 21.0688L10.1587 20.6224C10.6958 20.6224 11.8321 21.4461 12.21 21.0066C12.21 21.0066 12.5569 20.9088 12.6829 21.0066C13.2177 21.3864 13.03 21.637 13.6598 21.6082C14.0069 21.6082 14.7008 21.3864 15.2379 21.0688L15.8058 21.1C16.1532 21.2885 15.9321 21.4818 16.31 21.5749C16.6879 21.6682 17.225 21.7325 17.6029 21.797L18.3301 21.637C19.3379 22.081 19.3072 23.5088 19.4022 24.301C19.4022 24.6808 19.055 26.4856 18.96 27.3402L18.4229 27.5957C18.0758 27.9752 17.4769 27.3736 17.2558 27.3736C16.7829 27.3736 16.6261 27.4072 15.364 28.3858L14.7008 28.6413C14.2279 28.8298 14.1661 28.861 13.9119 29.2093C13.819 29.2741 13.2511 28.861 13.2511 28.861C12.5877 28.5149 11.9579 29.4029 11.5777 29.4029C10.2848 29.4029 10.3155 28.9874 9.59081 29.8778C9.59081 29.8778 8.01477 29.9712 7.82476 30.033C7.19238 30.2885 7.0666 29.9712 6.24659 30.353C5.45738 30.7325 5.6166 31.3008 5.4266 31.3986C5.49082 31.3986 4.92265 31.1768 4.92265 31.1768C4.85843 31.1768 4.63738 31.241 4.48054 31.241C4.00765 31.3008 3.12343 32.1557 3.12343 32.1557C1.57817 32.9192 0 36.8461 0 37.5458C0 37.9253 0.159223 38.3384 0.316058 38.7178C0.472893 39.0018 0.126052 39.2525 0.190272 39.5104C0.190272 39.7946 0.251838 40.1744 0.251838 40.5202C0.316058 40.9642 0.316058 41.344 0.347107 41.6949C0.347107 41.6949 0.82 43.2466 1.51395 43.6285L1.95606 43.8818C2.11528 43.977 2.58844 44.3256 2.58844 44.3256C3.02816 45.1493 3.59606 45.8154 4.16422 46.0661C4.63711 46.2594 4.98422 46.0349 5.45711 46.0994C5.89922 46.1928 6.46738 46.7344 6.46738 46.7344C6.62661 46.8277 6.84527 46.9877 7.03528 47.1141C7.9195 47.6821 8.42318 47.9997 8.92738 47.9997C9.4645 47.9997 9.84239 47.749 10.2845 47.5269C10.3487 47.4626 11.2945 47.176 11.3566 47.176L14.7958 47.016C14.8908 47.016 15.0808 47.016 15.3329 47.0829C15.5848 47.145 15.8677 47.1762 16.0887 47.1762C16.7519 47.1762 17.1937 46.9229 17.4458 46.8274L17.8879 46.4789C18.0756 46.2258 18.4558 45.9109 18.6129 45.8464L19.0548 45.7485C19.5279 45.6552 20.1577 45.56 20.6332 45.0872V45.1493C21.0111 44.7984 21.2629 44.4186 21.3579 44.2301C21.3579 44.2301 22.1779 44.4186 22.5558 44.6741L23.029 45.2424C23.219 45.5288 23.4711 45.9109 23.7872 46.164C24.7022 46.7346 25.2703 47.0493 25.9951 47.0493C26.2779 47.0493 27.4785 46.9874 27.6351 46.9565L28.3601 46.7656C28.8022 46.9565 28.8332 47.1141 29.1182 47.1141C29.5335 47.1141 30.0836 46.6736 30.3822 46.433C30.672 46.3941 31.0045 46.3277 31.2622 46.2234C31.4524 46.1304 31.8301 46.0349 31.9253 45.9704L32.5885 46.257C32.7761 46.6365 33.2182 46.7941 33.4703 46.7941C33.7556 46.732 33.8506 46.8586 34.1974 46.7008C34.3545 46.6368 34.9535 46.4456 35.1127 46.6056C35.8374 46.985 36.2156 47.2381 36.6574 47.2381C36.9403 47.2381 37.2256 47.0808 37.8246 46.8896C38.0148 46.7941 38.3925 46.6365 38.4877 46.6056C38.4877 46.6056 38.7706 46.7629 39.3077 46.7941C41.0096 46.985 41.5774 47.0496 41.7677 47.0496C42.0506 47.0496 42.3356 46.985 42.7777 46.8586C42.873 46.7941 43.2509 46.701 43.2509 46.701C43.2509 46.701 44.3538 46.8896 44.7959 46.9541C45.8059 47.2072 45.6798 47.3026 45.8677 47.3026C46.1219 47.3026 46.4356 47.1426 47.163 46.8586C47.4459 46.7632 48.4562 46.6053 48.4562 46.6053C48.708 46.701 48.9909 46.7941 49.3377 46.7941C49.7798 46.7941 50.1604 46.541 50.5072 46.1616C50.5691 46.097 50.6641 46.004 50.6951 45.9082L51.0419 46.0661C51.2322 46.4456 51.7054 46.6056 51.9572 46.6056C52.2398 46.541 52.6201 46.6677 52.9672 46.5101C52.9672 46.5101 53.4093 46.2568 53.5351 46.4146C54.2601 46.7941 54.6383 47.0493 55.0801 47.0493C55.363 47.0493 55.6483 46.8896 56.2472 46.701C56.4375 46.6056 56.9104 46.4456 57.0054 46.4146C57.0054 46.4146 58.1083 46.572 58.6454 46.6056C60.3496 46.7941 60.9154 46.8586 61.1054 46.8586C61.3907 46.8586 61.6733 46.7941 62.1157 46.6677C62.2107 46.6056 62.5886 46.5101 62.5886 46.5101C62.5886 46.5101 63.6914 46.701 64.1336 46.7632C65.1436 47.0162 65.0178 47.1117 65.2057 47.1117C65.4599 47.1117 65.7736 46.9541 66.5007 46.6677C66.7836 46.572 67.7938 46.4144 67.7938 46.4144C68.0459 46.5101 68.3286 46.6056 68.6757 46.6056C69.1178 46.6056 69.4981 46.3522 69.8449 45.9704C70.6009 45.3378 71.1691 44.0058 71.1691 43.373C71.1691 42.2965 70.8859 41.5349 70.2846 40.9642C69.4028 40.0786 69.277 40.3936 68.5828 40.0453L67.0357 40.1096C66.6578 40.1096 65.6478 40.3008 64.9536 40.4893C64.9536 40.4893 64.3857 40.7424 64.1978 40.8378C64.1025 40.9024 63.4728 40.6802 63.4728 40.6802C62.9357 40.4893 62.9975 40.3317 62.7146 40.3317H61.8304L61.1696 39.1594C60.8843 37.9874 61.2625 37.3522 61.2314 36.9728L61.4214 35.5141C61.7043 34.5328 61.8636 34.12 61.8636 33.8048C61.8636 33.2341 61.6735 32.8213 61.4833 32.6328C61.3907 32.3461 61.2312 32.093 61.5785 30.6344C61.6736 30.1928 61.5167 29.3357 61.5167 29.3357C61.5167 29.2402 61.3575 28.7986 61.3264 28.7032C61.1696 28.4168 60.9796 27.8794 60.9486 27.7197L61.2314 26.9605C61.4835 26.2325 61.6736 25.8504 61.6736 25.4706C61.6736 24.9312 61.4833 24.5826 61.2314 24.2032C61.0436 23.728 60.7893 23.1264 60.7893 21.8277C60.7275 21.5746 60.8536 20.0205 60.7893 18.6264L60.8535 16.5997C60.8535 16.5997 61.0104 16.2509 61.1364 16.06C61.2957 15.7114 61.4833 15.332 61.5785 14.8568C61.6736 14.3173 61.6425 13.7466 61.5785 13.2717C61.5167 13.0184 61.5167 12.6056 61.5167 12.6056C61.5785 12.2261 61.7688 11.72 61.9896 11.3069C62.4317 10.0392 62.6196 9.59758 62.6196 9.21571C62.6196 8.83598 62.3675 8.39198 61.8946 7.72585C61.7996 7.53731 61.6425 7.25091 61.6093 7.15785C61.6093 7.15785 61.4214 6.14318 61.2622 5.50825C61.0104 4.58905 60.7893 3.67225 60.6967 2.84638L60.6325 2.56211L60.4422 2.37118C60.2857 2.27811 59.4657 1.38985 58.7072 1.38985C58.1393 1.45198 57.9822 1.38985 57.5093 1.83411H56.8796C56.8796 1.83411 56.6251 1.39011 55.9954 1.39011C55.5222 1.39011 54.8901 1.29465 54.7022 1.48558L53.5354 1.58105C52.7154 1.10371 52.6512 1.04158 52.2398 1.04158C51.9572 1.04158 51.7669 1.13705 51.5791 1.19891L50.7591 0.819446C50.0319 0.375446 49.6848 0.248779 49.3712 0.248779C47.3841 0.313313 45.9319 3.82985 45.9962 5.38158C45.9962 7.66398 47.3509 8.39225 48.3919 9.02691C48.5512 9.02691 49.2119 8.93145 49.3377 9.02691C49.433 9.08905 49.5588 9.65971 49.654 9.81731C50.0009 10.1992 50.3172 10.0728 50.6333 10.1037C50.6333 10.1037 50.6641 9.97705 51.0112 9.88158C51.0112 9.88158 51.9262 10.4522 52.3991 10.4522C52.8722 10.4522 52.9341 10.0728 53.3143 9.78611L53.5972 10.3568C53.6922 10.7053 53.7564 11.0848 53.8822 11.4669C53.8822 11.4669 54.2601 12.4482 54.6072 12.9229L54.8593 13.5581C54.7022 13.8421 54.2601 14.1261 54.2601 14.5082C54.2601 14.7613 54.5764 15.1408 54.6383 15.3938C54.7022 15.6805 54.7022 16.1245 54.7022 16.313L54.4504 16.948C54.1962 17.2965 54.0701 17.676 54.0701 18.0557C54.0701 18.8173 54.543 19.3234 54.8283 19.641C55.0804 19.925 55.1754 20.0205 55.1754 20.2736C55.1754 20.2736 55.0162 20.7176 54.9233 20.9397C54.8283 21.2882 54.6691 21.6056 54.6691 21.9544C54.4812 22.7778 54.6072 23.6637 54.7641 24.2674C54.7641 24.425 55.0162 25.4397 55.0162 25.5352L54.9233 27.753C54.9233 28.1946 54.8591 28.5765 54.8591 28.9562C54.7943 29.354 54.7625 29.7564 54.7641 30.1594C54.6691 30.8256 54.5764 31.5226 54.5764 32.1888L55.2062 32.7901C55.3012 32.9813 54.8283 33.5829 54.8283 33.6781C54.8283 33.836 54.9851 34.1533 54.8283 34.4064C54.7172 34.7372 54.6329 35.0765 54.5762 35.421C54.5762 35.989 54.5122 36.5933 54.4812 37.1304C54.4172 37.5122 54.3862 37.892 54.3862 38.145C54.3862 38.3981 54.0391 38.6845 54.0391 38.9064C53.9751 39.2549 53.9441 39.8877 53.7872 40.0141L52.9672 39.7301C52.1472 39.4437 51.9572 39.6346 51.6743 39.6346C51.5151 39.6346 51.0419 39.4437 50.7901 39.4746C50.1269 39.5701 49.623 39.7301 49.433 39.7301C49.433 39.7301 49.2451 39.6656 49.0551 39.5701C48.4869 39.4746 48.2351 39.4746 47.9498 39.4746C47.0369 39.4746 46.3741 39.952 45.9319 40.5848C45.8369 40.5848 45.7417 40.5848 45.6491 40.6493C45.6491 40.6493 45.0812 40.9024 44.8909 40.9978C44.7959 41.0597 44.1659 40.8378 44.1659 40.8378C43.6288 40.6493 43.693 40.4893 43.4077 40.4893H42.5259L42.1456 39.317C41.7985 38.145 41.9577 37.5122 41.8935 37.1304L42.0838 35.6741C42.3667 34.6904 42.5259 34.28 42.5259 33.9624C42.5259 33.3917 42.3359 32.981 42.1788 32.7901C42.0196 32.5061 41.8938 32.2506 42.2406 30.7944C42.3359 30.3504 42.1788 29.4957 42.1788 29.4957C42.1788 29.4002 42.0196 28.9562 41.9888 28.8608C41.8319 28.5765 41.6417 28.037 41.6109 27.8794L41.9577 27.1181C42.1456 26.3898 42.3359 26.0104 42.3359 25.6282C42.3359 25.0912 42.1456 24.7426 41.9577 24.3608C41.7035 23.8856 41.4848 23.284 41.4848 21.9853C41.4848 21.7322 41.5467 20.1805 41.5467 18.7864V16.757C41.5467 16.757 41.7035 16.4085 41.8319 16.2176C41.9885 15.869 42.1788 15.4896 42.2717 15.0144C42.3667 14.4749 42.3359 13.9066 42.2717 13.4293C42.2098 13.176 42.2098 12.7653 42.2098 12.7653C42.2717 12.3834 42.4619 11.8773 42.6827 11.4666C43.1248 10.1992 43.3127 9.75518 43.3127 9.37545C43.3127 8.99358 43.0606 8.54958 42.6519 7.88585C42.4927 7.69491 42.3667 7.41091 42.3048 7.31518C42.3048 7.31518 42.1148 6.30078 41.9577 5.66798C41.7035 4.74905 41.4848 3.82985 41.3898 3.00611L41.3256 2.71971L41.1377 2.53118C40.9785 2.43571 40.1585 1.54771 39.4027 1.54771C38.8348 1.61198 38.6756 1.54771 38.2024 1.99171H37.5727C37.5727 1.99171 37.3206 1.54771 36.6885 1.54771C36.2156 1.54771 35.5856 1.45198 35.3956 1.64318L34.2285 1.73865C33.4085 1.26345 33.0306 1.19918 32.5885 1.19918C32.3032 1.19918 32.0514 1.29465 31.8614 1.35918L30.9793 0.977046C30.2211 0.535446 29.8743 0.406379 29.5272 0.406379C27.4143 0.470913 25.2369 3.98745 25.2679 5.54158C25.3322 7.82158 26.7201 8.54958 27.8253 9.18451C27.9822 9.18451 28.6761 9.50185 28.8332 9.59518C28.9282 9.65971 28.9282 9.85065 29.0232 10.0082C29.3703 10.3877 29.6532 10.4213 30.2853 10.4213C30.8201 10.4213 31.0411 9.94398 31.3882 9.85065C31.3882 9.85065 32.2414 10.6098 32.7761 10.6098C33.2493 10.6098 33.5961 10.2301 33.9764 9.94371L34.2593 10.5144C34.3545 10.8629 34.4185 11.245 34.5446 11.6245C34.5446 11.6245 34.9224 12.6056 35.2696 13.0805L35.5217 13.7157C35.3646 13.9997 34.9535 14.2864 34.9535 14.6658C34.9535 14.9189 35.2385 15.3008 35.3003 15.5538C35.3646 15.8381 35.3956 16.2818 35.3646 16.473L35.1124 17.1056C34.8582 17.4541 34.7324 17.8336 34.7324 18.2157C34.7964 18.9749 35.2053 19.481 35.4906 19.7986C35.7427 20.085 35.8374 20.1805 35.8374 20.4333C35.8374 20.4333 35.6782 20.8752 35.5856 21.0973C35.4906 21.4458 35.3956 21.7632 35.3314 22.1117C35.1435 22.9354 35.2696 23.8237 35.4906 24.425C35.4906 24.5826 35.6782 25.5973 35.6782 25.6928L35.5856 27.9106C35.5856 28.3546 35.5214 28.7341 35.5214 29.1138C35.4566 29.5123 35.4248 29.9155 35.4264 30.3192C35.3314 30.9832 35.2385 31.6802 35.2385 32.3461L35.7735 32.9477C35.8685 33.1386 35.4596 33.7402 35.4596 33.8357C35.4596 33.9933 35.6164 34.3109 35.4596 34.564C35.3646 34.8504 35.2696 35.1989 35.2696 35.5786C35.2053 36.1493 35.1745 36.7506 35.1127 37.2904C35.0485 37.6698 35.0174 38.0493 35.0485 38.3024C34.9873 38.5516 34.9555 38.8073 34.9535 39.064C34.8917 39.4125 34.5756 40.0453 34.4185 40.1717L33.5345 39.8877C32.8711 39.6034 32.7146 39.7922 32.4624 39.7922C32.3032 39.7922 31.9253 39.6034 31.7353 39.6346C31.2003 39.7301 31.2956 39.8877 31.2003 39.8877C31.2003 39.8877 31.0103 39.8232 30.8201 39.7301C30.6812 39.701 30.5414 39.677 30.4008 39.6581V39.6586ZM154.134 20.6248C154.923 21.0042 155.018 22.0501 155.018 22.8114C155.018 23.5706 154.576 23.9192 154.198 24.6498C153.818 25.3778 153.124 25.0605 152.746 25.2514C151.389 25.8221 149.844 26.1061 149.245 26.1061C148.865 26.1061 147.037 25.3469 146.626 25.3469C146.152 25.3469 145.523 25.7264 145.05 25.7264C144.669 25.7264 143.85 25.1557 143.407 25.1557C142.934 25.1557 141.706 25.5045 141.232 25.5045C140.127 25.5045 139.875 25.1248 139.875 24.3322C139.875 23.5397 140.6 21.7658 141.957 21.3864C142.335 21.2264 143.155 21.5437 143.662 21.1309C143.849 20.8778 144.009 19.9277 144.543 19.6746C145.744 18.913 148.361 18.185 148.803 18.185C149.34 18.185 150.065 18.7557 150.599 19.1664C150.98 19.2616 151.484 19.104 151.8 19.2616C152.463 19.6101 153.471 20.3072 154.134 20.6248ZM20.0319 34.3757L19.7798 36.7533C19.7798 37.2261 18.6129 37.4813 18.0756 37.9565C17.6977 38.1477 16.8158 38.7802 16.8158 38.7802C16.5616 38.9402 16.1529 39.2218 15.0166 41.1578C14.9524 41.3154 14.6387 41.5376 14.5437 41.5376C14.4795 41.5376 14.2584 41.4754 14.0708 41.4421C13.6929 41.3776 12.9656 41.3442 12.7134 41.3442C12.4308 41.3442 11.8934 41.5066 11.0734 41.7285C10.8216 41.7882 10.6624 42.1082 10.5056 42.1725C10.4437 42.0746 9.6545 41.917 9.5595 41.8552C8.8345 41.3778 9.18161 41.3778 8.58028 41.3778L7.60344 41.1578C7.06633 40.905 6.97345 40.3653 6.46738 39.7304C6.31055 39.573 6.49817 39.0357 6.31055 38.9042C6.05845 38.7181 6.49817 38.4293 6.49817 38.0808C6.49817 38.0808 6.21528 37.5768 6.84527 36.9445C7.28738 36.3072 7.38239 36.0229 7.38239 36.0229L8.14056 36.0562C8.14056 36.0562 8.61345 35.641 8.77055 35.5789L10.0016 35.1373C10.3487 34.8818 10.5363 34.693 10.7266 34.5666C10.8216 34.5666 11.0734 34.4688 11.6108 34.4688C11.9887 34.4688 12.3666 34.0296 12.8087 34.089C12.8087 34.089 14.1658 34.249 14.7337 34.249C15.2995 34.249 17.0037 33.8074 18.4869 33.2346C18.6437 33.1413 18.9598 33.077 19.0548 33.0458C19.2119 33.1104 19.3377 32.948 19.3377 32.984C19.5922 33.0458 19.7179 32.9194 19.7798 33.077C19.7798 33.077 19.9701 33.645 20.0319 34.3757Z" fill="white"/>
</g>
<defs>
<clipPath id="clip0_1_668">
<rect width="164" height="48" fill="white"/>
</clipPath>
</defs>
</svg>
