<svg width="219" height="114" viewBox="0 0 219 114" fill="none" xmlns="http://www.w3.org/2000/svg">
<g clip-path="url(#clip0_1_3314)">
<path d="M107.939 12.539C84.9774 18.3712 91.0415 44.592 91.0415 44.592C76.6555 22.5577 88.6431 5.41191 88.6431 5.41191C97.7621 3.87905 107.939 12.539 107.939 12.539ZM92.847 59.4445C89.8882 58.2793 87.1014 56.6227 84.5251 54.4701C71.4815 43.5394 69.7515 24.095 80.6763 11.0387C82.4233 8.92379 84.4178 7.13842 86.5517 5.62186C85.3925 7.36465 68.4036 33.8442 92.847 59.4445ZM89.1336 3.98717C99.9722 -2.14686 113.932 -1.29453 124.044 7.19173C133.746 15.3333 137.185 28.1738 133.832 39.5847C133.541 37.7989 131.04 24.9044 116.611 13.5631C116.611 13.5631 120.238 12.1987 128.685 13.4939C128.685 13.4939 122.805 10.3863 114.154 11.6215C114.154 11.6215 104.468 3.16705 89.1336 3.98717ZM127.914 50.6124V50.6235C122.708 56.8493 115.561 60.4967 108.09 61.4139C106.623 59.3423 81.0433 22.7029 111.092 15.1663C111.092 15.1663 127.483 28.611 127.914 50.6124ZM117.884 113.24L114.417 113.245L114.364 77.9769L128.857 77.9554C136.107 77.9498 140.419 81.414 140.424 87.2677C140.424 91.1736 137.271 96.5689 130.496 96.5741C131.838 97.5667 132.975 98.3758 134.458 100.637L142.478 113.207H138.424L132.415 103.588C128.324 96.9954 127.235 97.5993 123.462 97.5993L116.096 97.6049L117.071 94.5235L128.523 94.5133C132.927 94.5076 137.4 91.3787 137.4 87.3111C137.395 83.2478 133.778 80.8634 128.378 80.8689L117.84 80.8793L117.884 113.24ZM86.4248 97.6911L106.592 97.6641L108.963 94.5729L87.2616 94.594L86.4248 97.6911ZM87.9529 81.0844L107.028 81.0574L109.427 77.9769L84.4822 78.0094L84.5362 113.283L107.502 113.256L109.836 110.164L87.9854 110.197L87.9529 81.0844ZM81.0166 78.0414L78.6822 81.1278L67.0079 81.1492L67.0512 113.332L63.5901 113.337L63.5468 81.1549L49.7383 81.1658L52.0561 78.0742L81.0166 78.0414ZM181.792 77.9284H181.835V77.815L185.166 77.7721L210.984 113.218L207.125 113.224L196.884 99.1206L184.416 99.131L183.799 96.0401L194.663 96.0346L185.274 83.0109L185.328 113.202H185.285V113.218L181.889 113.251V113.214H181.846L181.792 77.9284ZM29.1599 113.316H29.1272V113.353L25.7208 113.342V113.299H25.6723L25.656 83.146L16.0997 96.2561L28.9415 96.2502L26.5697 99.3473L13.9115 99.3529L3.87539 113.38L0 113.391L25.699 77.9069L29.0788 77.9232V78.0146H29.1113L29.1599 113.316ZM176.909 77.8902L176.963 113.164L174.171 113.169C174.171 113.169 150.66 85.5246 149.247 83.8637L149.291 113.207H145.82L145.765 77.9336L148.622 77.9284C148.622 77.9284 172.068 105.568 173.481 107.219L173.437 77.9016L176.909 77.8902ZM37.352 78.0687L37.3949 110.262L58.2977 110.229L55.9259 113.316L33.9241 113.348L33.8707 78.0742L37.352 78.0687ZM215.013 109.63V108.435L215.803 108.432C216.189 108.423 216.603 108.537 216.603 109.005C216.603 109.59 216.172 109.619 215.693 109.619L215.013 109.63ZM217.19 109.034C217.19 108.296 216.747 107.941 215.851 107.953L214.457 107.958L214.468 111.776L215.013 111.764V110.118L215.676 110.115L216.663 111.756L217.289 111.75L216.254 110.07C216.784 109.999 217.19 109.727 217.19 109.034ZM215.704 112.584C214.232 112.601 213.039 111.449 213.039 109.863C213.039 108.324 214.227 107.113 215.693 107.104C217.181 107.096 218.335 108.288 218.335 109.829C218.335 111.41 217.19 112.582 215.704 112.584ZM215.693 106.551C213.901 106.568 212.41 107.972 212.41 109.868C212.41 111.784 213.907 113.177 215.704 113.155C217.473 113.149 219.013 111.736 219.001 109.823C219.001 107.933 217.47 106.536 215.693 106.551Z" fill="#100F0D"/>
</g>
<defs>
<clipPath id="clip0_1_3314">
<rect width="219" height="113.391" fill="white"/>
</clipPath>
</defs>
</svg>
