<svg width="225" height="48" viewBox="0 0 225 48" fill="none" xmlns="http://www.w3.org/2000/svg">
<g clip-path="url(#clip0_1_3348)">
<path d="M37.9 44.716H39.4375V45.7644C39.4469 46.0609 39.39 46.3558 39.271 46.627C39.152 46.8982 38.9739 47.1388 38.75 47.3307C38.179 47.8051 37.4498 48.0402 36.7125 47.9876C35.9714 48.0396 35.2385 47.8048 34.6625 47.3307C34.452 47.1311 34.2871 46.8877 34.1791 46.6172C34.0712 46.3467 34.0228 46.0557 34.0375 45.7644V41.9749C34.0237 41.6837 34.0724 41.393 34.1803 41.1226C34.2882 40.8523 34.4527 40.6087 34.6625 40.4086C35.2432 39.9446 35.9737 39.715 36.7125 39.7644C37.449 39.7181 38.176 39.9525 38.75 40.4212C38.9634 40.6191 39.1311 40.862 39.2413 41.1327C39.3514 41.4034 39.4014 41.6952 39.3875 41.9876V43.036H37.9V41.9876C37.9165 41.8055 37.8938 41.6221 37.8334 41.4498C37.773 41.2775 37.6763 41.1205 37.55 40.9897C37.3202 40.8267 37.0428 40.7466 36.7625 40.7623C36.4779 40.7437 36.1957 40.8239 35.9625 40.9897C35.8384 41.1216 35.744 41.2791 35.6857 41.4513C35.6275 41.6235 35.6067 41.8065 35.625 41.9876V45.777C35.6067 45.9581 35.6275 46.141 35.6857 46.3133C35.744 46.4855 35.8384 46.643 35.9625 46.7749C36.1957 46.9407 36.4779 47.0209 36.7625 47.0023C37.0301 46.9959 37.2886 46.903 37.5 46.737C37.6263 46.6062 37.723 46.4492 37.7834 46.2769C37.8438 46.1046 37.8665 45.9211 37.85 45.7391L37.9 44.716Z" fill="black"/>
<path d="M44.0251 40.9768C43.8988 41.1076 43.8021 41.2646 43.7417 41.4369C43.6812 41.6092 43.6585 41.7926 43.6751 41.9747V45.7641C43.6585 45.9462 43.6812 46.1296 43.7417 46.3019C43.8021 46.4742 43.8988 46.6312 44.0251 46.762C44.2516 46.9319 44.5315 47.0127 44.8126 46.9894C45.0971 47.008 45.3794 46.9278 45.6126 46.762C45.7367 46.6301 45.8311 46.4726 45.8893 46.3004C45.9476 46.1281 45.9683 45.9452 45.9501 45.7641V41.9747C45.9683 41.7936 45.9476 41.6107 45.8893 41.4384C45.8311 41.2662 45.7367 41.1087 45.6126 40.9768C45.3794 40.811 45.0971 40.7308 44.8126 40.7494C44.5315 40.7261 44.2516 40.807 44.0251 40.9768ZM44.8126 39.7136C45.5513 39.6643 46.2819 39.8938 46.8626 40.3578C47.0724 40.5579 47.2369 40.8015 47.3448 41.0718C47.4527 41.3422 47.5014 41.633 47.4876 41.9241V45.7136C47.5022 46.0049 47.4539 46.2959 47.3459 46.5664C47.238 46.8369 47.0731 47.0804 46.8626 47.2799C46.2866 47.754 45.5537 47.9888 44.8126 47.9368C44.0753 47.9894 43.346 47.7543 42.7751 47.2799C42.5603 47.0832 42.3916 46.8405 42.2813 46.5695C42.1711 46.2986 42.122 46.0062 42.1376 45.7136V41.9241C42.1328 41.6423 42.1871 41.3626 42.297 41.1035C42.4069 40.8445 42.5698 40.6118 42.7751 40.421C43.3509 39.9567 44.0777 39.7269 44.8126 39.7768" fill="black"/>
<path d="M51.7375 47.7977H50.2V39.9156H51.525L51.7375 40.3451C52.0421 40.0428 52.4298 39.8404 52.8499 39.764C53.2658 39.6752 53.6976 39.7014 54.0999 39.8398C54.5461 39.9699 54.9335 40.2528 55.1958 40.64C55.4581 41.0272 55.5789 41.4946 55.5375 41.9619V47.7977H54V41.9619C54.0182 41.7808 53.9974 41.5979 53.9392 41.4257C53.8809 41.2534 53.7865 41.0959 53.6625 40.964C53.4327 40.801 53.1553 40.7209 52.875 40.7366C52.5904 40.718 52.3082 40.7982 52.075 40.964C51.9525 41.0945 51.8591 41.2499 51.8009 41.4198C51.7427 41.5897 51.7211 41.7702 51.7375 41.9493V47.7977Z" fill="black"/>
<path d="M58.1 45.2845H59.5625V45.7518C59.5381 46.043 59.5764 46.336 59.675 46.6108C59.8375 46.8634 60.2125 46.9897 60.8125 46.9897C61.4125 46.9897 61.7749 46.8634 61.9374 46.6108C62.036 46.336 62.0743 46.043 62.0499 45.7518C62.0547 45.5351 62 45.3212 61.8919 45.134C61.7838 44.9467 61.6265 44.7933 61.4375 44.6908C60.9981 44.484 60.5423 44.315 60.075 44.1855C59.5927 44.0498 59.1421 43.8179 58.75 43.5034C58.5405 43.3117 58.3766 43.0747 58.2705 42.8101C58.1645 42.5454 58.119 42.2599 58.1374 41.975C58.1374 40.4845 59.0375 39.7266 60.85 39.7266C62.6625 39.7266 63.55 40.4845 63.55 41.975V42.4297H62.0499V41.9624C62.0728 41.6636 62.0076 41.3647 61.8625 41.1034C61.5639 40.8583 61.1909 40.7244 60.8062 40.7244C60.4215 40.7244 60.0485 40.8583 59.7499 41.1034C59.6048 41.3647 59.5396 41.6636 59.5625 41.9624C59.5638 42.1828 59.6221 42.399 59.7318 42.5896C59.8414 42.7802 59.9985 42.9385 60.1875 43.0487C60.6262 43.247 61.0824 43.4034 61.55 43.516C62.0381 43.6372 62.4972 43.8562 62.9 44.1602C63.1102 44.3594 63.2742 44.6031 63.3801 44.8739C63.486 45.1448 63.5312 45.436 63.5125 45.7266C63.5364 46.0178 63.5023 46.311 63.4121 46.5887C63.3219 46.8665 63.1775 47.1231 62.9874 47.3434C62.333 47.7554 61.5773 47.9739 60.8062 47.9739C60.0351 47.9739 59.2794 47.7554 58.625 47.3434C58.4349 47.1231 58.2905 46.8665 58.2003 46.5887C58.1101 46.311 58.076 46.0178 58.1 45.7266V45.2845Z" fill="black"/>
<path d="M69.875 44.7156H71.4125V45.764C71.4271 46.0553 71.3788 46.3463 71.2708 46.6168C71.1629 46.8873 70.998 47.1308 70.7875 47.3303C70.1899 47.7577 69.4759 47.9873 68.7437 47.9873C68.0116 47.9873 67.2976 47.7577 66.7 47.3303C66.4875 47.1324 66.3211 46.8891 66.213 46.6182C66.1049 46.3474 66.0578 46.0556 66.075 45.764V41.9745C66.0587 41.6831 66.1062 41.3915 66.2142 41.1208C66.3223 40.85 66.4882 40.6067 66.7 40.4082C67.301 39.9894 68.0137 39.7651 68.7437 39.7651C69.4738 39.7651 70.1865 39.9894 70.7875 40.4082C70.9973 40.6083 71.1618 40.8519 71.2697 41.1222C71.3775 41.3926 71.4263 41.6833 71.4125 41.9745V43.0229H69.875V41.9745C69.8932 41.7934 69.8725 41.6105 69.8142 41.4383C69.756 41.266 69.6616 41.1086 69.5375 40.9766C69.3043 40.8109 69.022 40.7306 68.7375 40.7493C68.4572 40.7335 68.1798 40.8136 67.95 40.9766C67.8259 41.1086 67.7315 41.266 67.6733 41.4383C67.615 41.6105 67.5943 41.7934 67.6125 41.9745V45.764C67.5943 45.9451 67.615 46.128 67.6733 46.3002C67.7315 46.4725 67.8259 46.63 67.95 46.7619C68.1798 46.9249 68.4572 47.005 68.7375 46.9893C69.022 47.0079 69.3043 46.9277 69.5375 46.7619C69.6616 46.63 69.756 46.4725 69.8142 46.3002C69.8725 46.128 69.8932 45.9451 69.875 45.764V44.7156Z" fill="black"/>
<path d="M75.6625 47.7979H74.125V39.9158H75.6625V47.7979ZM75.6625 38.4253H74.125V37.2632H75.6625V38.4253Z" fill="black"/>
<path d="M80.25 40.9769C80.1259 41.1088 80.0315 41.2663 79.9733 41.4385C79.915 41.6108 79.8943 41.7937 79.9125 41.9748V45.7643C79.8943 45.9453 79.915 46.1283 79.9733 46.3005C80.0315 46.4727 80.1259 46.6302 80.25 46.7621C80.4832 46.9279 80.7655 47.0081 81.05 46.9895C81.3303 47.0052 81.6077 46.9252 81.8375 46.7621C81.9616 46.6302 82.056 46.4727 82.1142 46.3005C82.1725 46.1283 82.1932 45.9453 82.175 45.7643V41.9748C82.1932 41.7937 82.1725 41.6108 82.1142 41.4385C82.056 41.2663 81.9616 41.1088 81.8375 40.9769C81.6077 40.8139 81.3303 40.7338 81.05 40.7495C80.7655 40.7309 80.4832 40.8111 80.25 40.9769ZM81.05 39.7137C81.7849 39.6639 82.5117 39.8937 83.0875 40.3579C83.3122 40.5589 83.4887 40.8089 83.6035 41.0891C83.7183 41.3692 83.7684 41.6721 83.75 41.9748V45.7643C83.7656 46.0568 83.7165 46.3492 83.6063 46.6201C83.496 46.8911 83.3273 47.1338 83.1125 47.3306C82.5416 47.805 81.8123 48.0401 81.075 47.9874C80.3339 48.0395 79.601 47.8046 79.025 47.3306C78.8125 47.1326 78.6461 46.8894 78.538 46.6185C78.4299 46.3476 78.3828 46.0558 78.4 45.7643V41.9748C78.3824 41.6873 78.4269 41.3994 78.5305 41.1311C78.6341 40.8628 78.7943 40.6205 79 40.4211C79.5807 39.9571 80.3113 39.7275 81.05 39.7769" fill="black"/>
<path d="M90.2374 39.916H91.7749V47.7981H90.4374L90.2374 47.3686C89.9327 47.6709 89.5451 47.8733 89.1249 47.9497C88.7091 48.0391 88.2771 48.013 87.8749 47.8739C87.4254 47.7437 87.0348 47.4594 86.7702 47.0699C86.5057 46.6803 86.3835 46.2098 86.4249 45.7392V39.916H87.9624V45.7392C87.9439 45.9232 87.9657 46.1091 88.0262 46.2838C88.0867 46.4584 88.1844 46.6174 88.3124 46.7497C88.5378 46.9217 88.8185 47.0027 89.0999 46.9771C89.3844 46.9957 89.6667 46.9155 89.8999 46.7497C90.0223 46.6192 90.1157 46.4638 90.1739 46.2939C90.2321 46.124 90.2538 45.9435 90.2374 45.7644V39.916Z" fill="black"/>
<path d="M94.325 45.2845H95.8V45.7518C95.7757 46.043 95.814 46.336 95.9126 46.6108C96.0626 46.8634 96.4375 46.9897 97.0375 46.9897C97.6375 46.9897 98.0125 46.8634 98.1625 46.6108C98.2611 46.336 98.2994 46.043 98.2751 45.7518C98.2827 45.5345 98.2292 45.3195 98.1208 45.1317C98.0124 44.9439 97.8535 44.791 97.6625 44.6908C97.2072 44.4875 96.7344 44.3268 96.25 44.2108C95.7923 44.0584 95.3679 43.8182 95 43.5034C94.789 43.3124 94.6233 43.0758 94.5151 42.8112C94.4069 42.5466 94.359 42.2608 94.375 41.975C94.375 40.4845 95.2875 39.7266 97.0875 39.7266C98.8875 39.7266 99.8 40.4845 99.8 41.975V42.4297H98.2751V41.9624C98.301 41.6649 98.2402 41.3663 98.1001 41.1034C97.9647 40.9606 97.798 40.8519 97.6135 40.7861C97.4289 40.7203 97.2316 40.6992 97.0375 40.7245C96.8435 40.6992 96.6462 40.7203 96.4617 40.7861C96.2771 40.8519 96.1104 40.9606 95.975 41.1034C95.8349 41.3663 95.7741 41.6649 95.8 41.9624C95.7921 42.1831 95.8451 42.4017 95.9534 42.5936C96.0616 42.7855 96.2206 42.9431 96.4125 43.0487C96.8522 43.2447 97.3081 43.4011 97.7751 43.516C98.2671 43.6524 98.7265 43.8888 99.1251 44.2108C99.3376 44.4087 99.5039 44.6519 99.612 44.9228C99.7201 45.1937 99.7673 45.4855 99.7501 45.7771C99.774 46.0684 99.7399 46.3616 99.6497 46.6393C99.5595 46.917 99.4151 47.1736 99.225 47.3939C98.5687 47.8071 97.8108 48.0261 97.0375 48.0261C96.2642 48.0261 95.5064 47.8071 94.85 47.3939C94.66 47.1736 94.5156 46.917 94.4254 46.6393C94.3352 46.3616 94.3011 46.0684 94.325 45.7771V45.2845Z" fill="black"/>
<path d="M107.65 45.2842H109.112V45.7515C109.088 46.0427 109.126 46.3357 109.225 46.6105C109.387 46.8631 109.762 46.9894 110.362 46.9894C110.962 46.9894 111.337 46.8631 111.487 46.6105C111.586 46.3357 111.624 46.0427 111.6 45.7515C111.608 45.5342 111.554 45.3192 111.446 45.1314C111.337 44.9436 111.178 44.7907 110.987 44.6905C110.548 44.4901 110.092 44.3295 109.625 44.2105C109.135 44.0817 108.676 43.854 108.275 43.541C108.064 43.35 107.898 43.1134 107.79 42.8488C107.682 42.5842 107.634 42.2984 107.65 42.0126C107.65 40.5221 108.55 39.7642 110.362 39.7642C112.175 39.7642 113.075 40.5221 113.075 42.0126V42.4673H111.6V42C111.62 41.7029 111.559 41.406 111.425 41.141C111.124 40.8949 110.749 40.7606 110.362 40.7606C109.976 40.7606 109.6 40.8949 109.3 41.141C109.155 41.4023 109.09 41.7012 109.112 42C109.114 42.2204 109.172 42.4366 109.282 42.6272C109.391 42.8178 109.549 42.976 109.737 43.0863C110.177 43.2823 110.633 43.4387 111.1 43.5536C111.607 43.6721 112.083 43.8958 112.5 44.2105C112.712 44.4084 112.879 44.6517 112.987 44.9225C113.095 45.1934 113.142 45.4852 113.125 45.7768C113.13 46.0688 113.078 46.359 112.971 46.6302C112.863 46.9014 112.703 47.1481 112.5 47.3557C111.844 47.7689 111.086 47.9879 110.312 47.9879C109.539 47.9879 108.781 47.7689 108.125 47.3557C107.935 47.1354 107.79 46.8788 107.7 46.6011C107.61 46.3234 107.576 46.0302 107.6 45.7389L107.65 45.2842Z" fill="black"/>
<path d="M119.55 39.916H121.25L118.75 42.7707C119.326 42.7961 119.878 43.0087 120.325 43.3771C120.538 43.5755 120.705 43.8184 120.815 44.089C120.925 44.3595 120.976 44.6511 120.962 44.9434V47.7981H119.438V44.9434C119.452 44.7634 119.429 44.5823 119.368 44.4124C119.308 44.2424 119.212 44.0875 119.087 43.9581C118.861 43.7883 118.581 43.7075 118.3 43.7307H117.163V47.7981H115.625V36.4297H117.163V42.6823L119.55 39.916Z" fill="black"/>
<path d="M125 47.7979H123.475V39.9158H125V47.7979ZM125 38.4253H123.475V37.2632H125V38.4253Z" fill="black"/>
<path d="M129.263 47.7977H127.725V39.9156H129.05L129.263 40.3451C129.567 40.0428 129.955 39.8404 130.375 39.764C130.791 39.6752 131.223 39.7014 131.625 39.8398C132.071 39.9699 132.459 40.2528 132.721 40.64C132.983 41.0272 133.104 41.4946 133.063 41.9619V47.7977H131.525V41.9619C131.543 41.7808 131.523 41.5979 131.464 41.4257C131.406 41.2534 131.312 41.0959 131.188 40.964C130.958 40.801 130.68 40.7209 130.4 40.7366C130.116 40.718 129.833 40.7982 129.6 40.964C129.478 41.0945 129.384 41.2499 129.326 41.4198C129.268 41.5897 129.246 41.7702 129.263 41.9493V47.7977Z" fill="black"/>
<path d="M141.125 45.284H142.588V45.7514C142.563 46.0426 142.602 46.3356 142.7 46.6104C142.863 46.863 143.238 46.9893 143.838 46.9893C144.438 46.9893 144.813 46.863 144.963 46.6104C145.061 46.3356 145.099 46.0426 145.075 45.7514C145.083 45.5341 145.029 45.3191 144.921 45.1313C144.812 44.9435 144.654 44.7906 144.463 44.6904C144.024 44.4813 143.568 44.3122 143.1 44.1851C142.61 44.0563 142.151 43.8286 141.75 43.5156C141.539 43.3246 141.373 43.088 141.265 42.8234C141.157 42.5588 141.109 42.273 141.125 41.9872C141.125 40.4967 142.025 39.7388 143.838 39.7388C145.65 39.7388 146.55 40.4967 146.55 41.9872V42.4419H145.075V41.9746C145.098 41.6758 145.033 41.3769 144.888 41.1156C144.754 40.9746 144.589 40.867 144.407 40.8013C144.225 40.7355 144.03 40.7134 143.838 40.7367C143.644 40.7114 143.446 40.7325 143.262 40.7983C143.077 40.8641 142.91 40.9728 142.775 41.1156C142.63 41.3769 142.565 41.6758 142.588 41.9746C142.589 42.195 142.647 42.4113 142.757 42.6018C142.867 42.7924 143.024 42.9507 143.213 43.0609C143.652 43.257 144.108 43.4134 144.575 43.5282C145.063 43.6494 145.522 43.8685 145.925 44.1725C146.138 44.3704 146.304 44.6136 146.412 44.8845C146.52 45.1554 146.567 45.4472 146.55 45.7388C146.575 46.0311 146.541 46.3256 146.448 46.6038C146.356 46.882 146.207 47.1379 146.013 47.3556C145.393 47.8379 144.616 48.0637 143.838 47.9872C143.056 48.0631 142.274 47.8375 141.65 47.3556C141.46 47.1353 141.316 46.8787 141.225 46.601C141.135 46.3232 141.101 46.0301 141.125 45.7388V45.284Z" fill="black"/>
<path d="M152.912 44.7156H154.45V45.764C154.466 46.0566 154.417 46.349 154.306 46.6199C154.196 46.8909 154.027 47.1336 153.812 47.3303C153.242 47.8047 152.512 48.0398 151.775 47.9872C151.034 48.0392 150.301 47.8044 149.725 47.3303C149.514 47.1308 149.35 46.8873 149.242 46.6168C149.134 46.3463 149.085 46.0553 149.1 45.764V41.9745C149.086 41.6834 149.135 41.3926 149.243 41.1223C149.351 40.8519 149.515 40.6083 149.725 40.4082C150.306 39.9442 151.036 39.7147 151.775 39.764C152.51 39.7142 153.237 39.944 153.812 40.4082C154.026 40.6061 154.194 40.849 154.304 41.1197C154.414 41.3903 154.464 41.6822 154.45 41.9745V43.023H152.912V41.9745C152.929 41.7925 152.906 41.609 152.846 41.4368C152.785 41.2645 152.689 41.1075 152.562 40.9767C152.336 40.8068 152.056 40.726 151.775 40.7493C151.49 40.7307 151.208 40.8109 150.975 40.9767C150.851 41.1086 150.756 41.2661 150.698 41.4383C150.64 41.6105 150.619 41.7935 150.637 41.9745V45.764C150.619 45.9451 150.64 46.128 150.698 46.3003C150.756 46.4725 150.851 46.63 150.975 46.7619C151.208 46.9277 151.49 47.0079 151.775 46.9893C152.056 47.0125 152.336 46.9317 152.562 46.7619C152.689 46.6311 152.785 46.4741 152.846 46.3018C152.906 46.1295 152.929 45.946 152.912 45.764V44.7156Z" fill="black"/>
<path d="M158.75 47.7979H157.212V39.9158H158.75V47.7979ZM158.75 38.4253H157.212V37.2632H158.75V38.4253Z" fill="black"/>
<path d="M162.938 43.3894H165.213V41.9873C165.231 41.8062 165.21 41.6233 165.152 41.4511C165.094 41.2788 164.999 41.1213 164.875 40.9894C164.634 40.841 164.357 40.7625 164.075 40.7625C163.793 40.7625 163.516 40.841 163.275 40.9894C163.151 41.1213 163.057 41.2788 162.998 41.4511C162.94 41.6233 162.919 41.8062 162.938 41.9873V43.3894ZM161.4 41.9873C161.385 41.696 161.434 41.405 161.542 41.1345C161.65 40.864 161.815 40.6206 162.025 40.421C162.604 39.9525 163.335 39.7183 164.075 39.7641C164.812 39.7153 165.54 39.95 166.113 40.421C166.327 40.6178 166.496 40.8604 166.606 41.1314C166.717 41.4024 166.766 41.6948 166.75 41.9873V44.3747H162.938V45.7641C162.917 45.9473 162.937 46.1326 162.996 46.3072C163.054 46.4817 163.149 46.6413 163.275 46.7747C163.516 46.9231 163.793 47.0016 164.075 47.0016C164.357 47.0016 164.634 46.9231 164.875 46.7747C165.001 46.6413 165.096 46.4817 165.155 46.3072C165.213 46.1326 165.233 45.9473 165.213 45.7641V45.1199H166.75V45.7641C166.766 46.0586 166.717 46.3529 166.607 46.6259C166.496 46.8989 166.328 47.1438 166.113 47.3431C165.538 47.8096 164.81 48.0396 164.075 47.9873C163.336 48.0367 162.606 47.8071 162.025 47.3431C161.814 47.1411 161.649 46.8954 161.541 46.6228C161.434 46.3502 161.385 46.0573 161.4 45.7641V41.9873Z" fill="black"/>
<path d="M171 47.7977H169.45V39.9156H170.787L171 40.3451C171.303 40.0402 171.691 39.8373 172.112 39.764C172.528 39.6752 172.96 39.7014 173.362 39.8398C173.809 39.9699 174.196 40.2528 174.458 40.64C174.721 41.0272 174.841 41.4946 174.8 41.9619V47.7977H173.262V41.9619C173.281 41.7808 173.26 41.5979 173.202 41.4257C173.143 41.2534 173.049 41.0959 172.925 40.964C172.692 40.7982 172.409 40.718 172.125 40.7366C171.845 40.7209 171.567 40.801 171.337 40.964C171.215 41.0945 171.122 41.2499 171.063 41.4198C171.005 41.5897 170.984 41.7702 171 41.9493V47.7977Z" fill="black"/>
<path d="M181.325 44.7156H182.863V45.764C182.878 46.0566 182.829 46.349 182.719 46.6199C182.609 46.8909 182.44 47.1336 182.225 47.3303C181.654 47.8047 180.925 48.0398 180.188 47.9872C179.446 48.0392 178.714 47.8044 178.138 47.3303C177.927 47.1308 177.762 46.8873 177.654 46.6168C177.546 46.3463 177.498 46.0553 177.513 45.764V41.9745C177.499 41.6834 177.548 41.3926 177.655 41.1223C177.763 40.8519 177.928 40.6083 178.138 40.4082C178.718 39.9442 179.449 39.7147 180.188 39.764C180.922 39.7142 181.649 39.944 182.225 40.4082C182.438 40.6061 182.606 40.849 182.716 41.1197C182.827 41.3903 182.876 41.6822 182.863 41.9745V43.023H181.325V41.9745C181.342 41.7925 181.319 41.609 181.259 41.4368C181.198 41.2645 181.101 41.1075 180.975 40.9767C180.749 40.8068 180.469 40.726 180.188 40.7493C179.903 40.7307 179.621 40.8109 179.388 40.9767C179.263 41.1086 179.169 41.2661 179.111 41.4383C179.053 41.6105 179.032 41.7935 179.05 41.9745V45.764C179.032 45.9451 179.053 46.128 179.111 46.3003C179.169 46.4725 179.263 46.63 179.388 46.7619C179.621 46.9277 179.903 47.0079 180.188 46.9893C180.469 47.0125 180.749 46.9317 180.975 46.7619C181.101 46.6311 181.198 46.4741 181.259 46.3018C181.319 46.1295 181.342 45.946 181.325 45.764V44.7156Z" fill="black"/>
<path d="M187.1 43.3893H189.375V41.9872C189.393 41.8061 189.373 41.6232 189.314 41.451C189.256 41.2787 189.162 41.1213 189.038 40.9893C188.804 40.8235 188.522 40.7433 188.238 40.762C187.956 40.7387 187.677 40.8195 187.45 40.9893C187.324 41.1202 187.227 41.2771 187.167 41.4494C187.106 41.6217 187.083 41.8052 187.1 41.9872V43.3893ZM185.563 41.9872C185.553 41.6907 185.61 41.3958 185.729 41.1246C185.848 40.8534 186.026 40.6128 186.25 40.4209C186.824 39.9521 187.551 39.7178 188.288 39.7641C189.028 39.7183 189.759 39.9524 190.338 40.4209C190.548 40.6205 190.713 40.864 190.821 41.1344C190.929 41.4049 190.977 41.6959 190.963 41.9872V44.3746H187.213V45.7641C187.194 45.9481 187.216 46.134 187.276 46.3086C187.337 46.4833 187.435 46.6423 187.563 46.7746C187.789 46.9444 188.069 47.0252 188.35 47.0019C188.635 47.0206 188.917 46.9404 189.15 46.7746C189.276 46.6412 189.371 46.4816 189.43 46.3071C189.488 46.1325 189.508 45.9472 189.488 45.7641V45.1198H191.025V45.7641C191.04 46.0572 190.992 46.3502 190.884 46.6227C190.776 46.8953 190.611 47.141 190.4 47.343C189.819 47.807 189.089 48.0366 188.35 47.9872C187.615 48.0371 186.888 47.8073 186.313 47.343C186.097 47.1437 185.929 46.8988 185.819 46.6258C185.708 46.3528 185.659 46.0585 185.675 45.7641L185.563 41.9872Z" fill="black"/>
<path d="M9.225 25.9579H6.0875C4.8375 25.9579 4.55 25.7305 4.55 24.5053V7.45262C4.55 6.18946 4.8 5.99999 6.0875 5.99999H9.225V2.8042H4.5375C1.25 2.8042 0 4.0042 0 7.11157V24.7958C0 27.9031 1.25 29.1031 4.5375 29.1031H9.225V25.9579Z" fill="black"/>
<path d="M96.6 19.6924C96.6737 20.4942 96.451 21.2951 95.975 21.9408C95.7854 22.101 95.5663 22.2214 95.3302 22.2952C95.0941 22.3689 94.8459 22.3944 94.6 22.3703C94.1056 22.4157 93.613 22.2664 93.225 21.9534C92.7502 21.3023 92.5279 20.4979 92.6 19.6924V13.2124C92.5258 12.4145 92.7487 11.6174 93.225 10.9766C93.6318 10.7076 94.1075 10.5643 94.5937 10.5643C95.0799 10.5643 95.5556 10.7076 95.9625 10.9766C96.4474 11.6183 96.675 12.4212 96.6 13.225V19.6924ZM94.6 7.18713C93.713 7.13309 92.8244 7.26448 91.99 7.5731C91.1555 7.88172 90.3929 8.36094 89.75 8.98082C88.7191 10.1366 88.1841 11.6585 88.2625 13.2124V19.6924C88.2143 20.4743 88.3211 21.258 88.5765 21.9976C88.8319 22.7373 89.2309 23.4179 89.75 23.9998C91.104 25.1572 92.8202 25.7923 94.5937 25.7923C96.3673 25.7923 98.0834 25.1572 99.4375 23.9998C99.9534 23.4281 100.352 22.7585 100.609 22.0299C100.867 21.3013 100.978 20.5282 100.937 19.7556V13.2124C101.016 11.6585 100.481 10.1366 99.45 8.98082C98.807 8.36094 98.0445 7.88172 97.21 7.5731C96.3755 7.26448 95.487 7.13309 94.6 7.18713Z" fill="black"/>
<path d="M78.5876 1.07345C77.7376 1.55659 77.0408 2.27368 76.5783 3.14131C76.1159 4.00894 75.9067 4.99143 75.9751 5.9745V7.23766H73.8501V10.5471H75.9751V25.705H80.2876V10.5471H84.8751V7.18713H80.2876V5.92397C80.2543 5.56572 80.3062 5.20462 80.4388 4.87068C80.5714 4.53674 80.781 4.2396 81.0501 4.00397C81.9949 3.45333 83.1058 3.26922 84.1751 3.48608L85.2251 3.63766L85.8251 0.239762L84.7376 0.138709C82.6412 -0.179674 80.4985 0.145991 78.5876 1.07345Z" fill="black"/>
<path d="M67.0375 7.19992C66.0105 6.87979 64.903 6.95171 63.925 7.40202C63.1483 7.74562 62.4817 8.30114 62 9.00624C61.6456 8.46808 61.1788 8.01499 60.6324 7.67889C60.086 7.3428 59.4733 7.13187 58.8375 7.06097C58.2078 6.95704 57.563 6.99728 56.9508 7.17874C56.3385 7.3602 55.7744 7.67823 55.3 8.10939L55 7.18729H51.25V25.7178H55.575V13.0862C55.5028 12.3109 55.664 11.5316 56.0375 10.8504C56.0375 10.762 56.3 10.4715 57.175 10.4715C58.05 10.4715 58.2375 10.762 58.3 10.8631C58.6734 11.5532 58.8304 12.3418 58.75 13.1241V25.6799H63.0875V13.162C63.01 12.3758 63.1667 11.584 63.5375 10.8883C63.5375 10.7999 63.8 10.5094 64.6875 10.5094C65.575 10.5094 65.7625 10.7999 65.825 10.8883C66.1781 11.5898 66.3256 12.3787 66.25 13.162V25.7178H70.5875V13.162C70.6313 11.762 70.2708 10.3795 69.55 9.18308C68.9699 8.24349 68.0801 7.54113 67.0375 7.19992Z" fill="black"/>
<path d="M38.4376 13.2125C38.3607 12.4124 38.5887 11.6128 39.0751 10.9767C39.2635 10.8147 39.4825 10.6931 39.7189 10.6193C39.9553 10.5454 40.204 10.5209 40.4501 10.5473C40.9408 10.4998 41.4303 10.6496 41.8126 10.9641C42.3153 11.5985 42.561 12.4021 42.5001 13.2125V19.6925C42.5776 20.4966 42.3497 21.3004 41.8626 21.941C41.6761 22.102 41.4591 22.2231 41.2249 22.2969C40.9907 22.3707 40.7441 22.3957 40.5001 22.3704C40.0053 22.4199 39.5112 22.2701 39.1251 21.9536C38.6405 21.3069 38.4131 20.5002 38.4876 19.6925L38.4376 13.2125ZM40.4501 7.18727C39.5629 7.13169 38.674 7.26237 37.8393 7.57107C37.0046 7.87978 36.2421 8.35982 35.6001 8.98095C34.5692 10.1367 34.0342 11.6586 34.1126 13.2125V19.6925C34.0644 20.4744 34.1712 21.2581 34.4266 21.9978C34.682 22.7374 35.081 23.4181 35.6001 23.9999C36.2432 24.6188 37.0061 25.0965 37.8407 25.403C38.6754 25.7095 39.5638 25.8382 40.4501 25.781C41.3344 25.8372 42.2206 25.708 43.0531 25.4015C43.8856 25.095 44.6463 24.6178 45.2876 23.9999C46.3204 22.8403 46.8554 21.3137 46.7751 19.7557V13.2125C46.8535 11.6586 46.3185 10.1367 45.2876 8.98095C44.6474 8.3608 43.8871 7.88128 43.0546 7.57258C42.222 7.26389 41.3352 7.1327 40.4501 7.18727Z" fill="black"/>
<path d="M23.2249 7.18727C22.3398 7.1327 21.453 7.26389 20.6204 7.57258C19.7879 7.88128 19.0276 8.3608 18.3874 8.98095C17.3565 10.1367 16.8215 11.6586 16.8999 13.2125V19.6925C16.8518 20.4744 16.9585 21.2581 17.2139 21.9978C17.4694 22.7374 17.8683 23.4181 18.3874 23.9999C19.0287 24.6178 19.7894 25.095 20.6219 25.4015C21.4544 25.708 22.3406 25.8372 23.2249 25.781C24.1112 25.8382 24.9996 25.7095 25.8343 25.403C26.6689 25.0965 27.4318 24.6188 28.0749 23.9999C29.1078 22.8403 29.6428 21.3137 29.5624 19.7557V19.301H25.2374V19.7557C25.315 20.5598 25.0871 21.3635 24.5999 22.0041C24.4115 22.1661 24.1925 22.2878 23.9561 22.3616C23.7197 22.4354 23.471 22.4599 23.2249 22.4336C22.7342 22.481 22.2447 22.3313 21.8624 22.0167C21.3713 21.3498 21.1521 20.5179 21.2499 19.6925V13.2125C21.1758 12.4147 21.3986 11.6175 21.8749 10.9767C22.0645 10.8166 22.2837 10.6961 22.5197 10.6224C22.7558 10.5486 23.004 10.5231 23.2499 10.5473C23.7447 10.4978 24.2388 10.6476 24.6249 10.9641C25.1098 11.6058 25.3375 12.4087 25.2624 13.2125V14.8925H29.5874V13.2125C29.6658 11.6586 29.1308 10.1367 28.0999 8.98095C27.4579 8.35982 26.6954 7.87978 25.8607 7.57107C25.026 7.26237 24.1371 7.13169 23.2499 7.18727" fill="black"/>
<path d="M187.5 7.42716C186.528 7.04942 185.467 6.97032 184.45 7.19979C183.66 7.38307 182.924 7.75079 182.3 8.27347L182.012 7.18716H178.262V25.7177H182.5V13.0861C182.426 12.3039 182.65 11.5227 183.125 10.9008C183.533 10.6292 184.011 10.4844 184.5 10.4844C184.989 10.4844 185.467 10.6292 185.875 10.9008C186.36 11.5375 186.588 12.3367 186.512 13.1366V25.6924H190.837V13.1619C190.837 10.2566 189.687 8.324 187.387 7.42716" fill="black"/>
<path d="M199.763 13.2254C199.687 12.4254 199.915 11.6263 200.4 10.9896C200.803 10.7093 201.28 10.5593 201.769 10.5593C202.258 10.5593 202.735 10.7093 203.138 10.9896C203.623 11.6263 203.851 12.4254 203.775 13.2254V14.2359H199.763V13.2254ZM208.113 17.5959V13.2254C208.149 12.457 208.036 11.6889 207.778 10.9649C207.521 10.241 207.125 9.57544 206.613 9.00645C205.258 7.84898 203.542 7.21387 201.769 7.21387C199.995 7.21387 198.279 7.84898 196.925 9.00645C196.415 9.57644 196.021 10.2424 195.766 10.9663C195.511 11.6902 195.399 12.4579 195.438 13.2254V19.7054C195.391 20.4852 195.499 21.2665 195.754 22.0039C196.009 22.7412 196.407 23.4198 196.925 24.0001C198.279 25.1576 199.995 25.7927 201.769 25.7927C203.542 25.7927 205.258 25.1576 206.613 24.0001C207.122 23.5504 207.522 22.9885 207.782 22.3577C208.042 21.727 208.155 21.0442 208.113 20.3622V19.3265H203.75V20.3622C203.783 20.6379 203.755 20.9176 203.666 21.1806C203.578 21.4437 203.433 21.6834 203.241 21.8822C203.049 22.0809 202.816 22.2337 202.558 22.3292C202.3 22.4246 202.024 22.4604 201.75 22.4338C200.088 22.4338 199.738 20.817 199.738 19.7559V17.5959H208.113Z" fill="black"/>
<path d="M169.35 19.6926C169.421 20.4961 169.194 21.2976 168.712 21.941C168.524 22.1031 168.305 22.2247 168.069 22.2985C167.832 22.3723 167.583 22.3968 167.337 22.3705C166.847 22.418 166.357 22.2682 165.975 21.9537C165.49 21.3069 165.263 20.5003 165.337 19.6926V13.2126C165.263 12.4147 165.486 11.6176 165.962 10.9768C166.371 10.7052 166.849 10.5604 167.337 10.5604C167.826 10.5604 168.304 10.7052 168.712 10.9768C169.192 11.6213 169.419 12.422 169.35 13.2252V19.6926ZM167.337 7.18734C166.452 7.13277 165.566 7.26396 164.733 7.57266C163.9 7.88135 163.14 8.36087 162.5 8.98103C161.985 9.55075 161.587 10.2182 161.33 10.9447C161.072 11.6711 160.96 12.442 161 13.2126V19.6926C160.953 20.4753 161.062 21.2596 161.32 21.9993C161.577 22.7389 161.979 23.4192 162.5 24C163.855 25.1608 165.574 25.7979 167.35 25.7979C169.126 25.7979 170.845 25.1608 172.2 24C173.233 22.8403 173.768 21.3138 173.687 19.7558V13.2126C173.766 11.6587 173.231 10.1368 172.2 8.98103C171.557 8.36116 170.794 7.88194 169.96 7.57331C169.125 7.26469 168.237 7.1333 167.35 7.18734" fill="black"/>
<path d="M114.7 7.42736C113.723 7.04932 112.658 6.97024 111.637 7.19999C110.851 7.38334 110.119 7.75116 109.5 8.27367L109.212 7.18736H105.462V25.7179H109.8V13.0863C109.728 12.3004 109.951 11.5158 110.425 10.8884C110.813 10.5755 111.306 10.4262 111.8 10.4716C112.291 10.4241 112.78 10.5739 113.162 10.8884C113.648 11.5251 113.875 12.3242 113.8 13.1242V14.8547H118.137V13.1621C118.137 10.2568 116.975 8.3242 114.687 7.42736" fill="black"/>
<path d="M128.787 0H124.687V7.18737H120.962V10.5474H124.462V25.7179H128.787V10.5474H132.3V7.18737H128.787V0Z" fill="black"/>
<path d="M157.363 7.1875H144.712V10.5475H152.113L144.663 23.7854L144.625 25.718H157.363V22.3707H149.988L157.325 9.37276L157.363 7.1875Z" fill="black"/>
<path d="M215.775 25.9579H218.912C220.162 25.9579 220.45 25.7305 220.45 24.5053V7.45262C220.45 6.18946 220.2 5.99999 218.912 5.99999H215.775V2.8042H220.462C223.725 2.8042 225 4.0042 225 7.11157V24.7958C225 27.9031 223.75 29.1031 220.462 29.1031H215.775V25.9579Z" fill="black"/>
<path d="M215.775 25.9579H218.912C220.162 25.9579 220.45 25.7305 220.45 24.5053V7.45262C220.45 6.18946 220.2 5.99999 218.912 5.99999H215.775V2.8042H220.462C223.725 2.8042 225 4.0042 225 7.11157V24.7958C225 27.9031 223.75 29.1031 220.462 29.1031H215.775V25.9579Z" fill="black"/>
</g>
<defs>
<clipPath id="clip0_1_3348">
<rect width="225" height="48" fill="white"/>
</clipPath>
</defs>
</svg>
