<svg width="217" height="65" viewBox="0 0 217 65" fill="none" xmlns="http://www.w3.org/2000/svg">
<g clip-path="url(#clip0_1_552)">
<path fill-rule="evenodd" clip-rule="evenodd" d="M31.7598 64.1333C29.1187 64.1333 14.1594 64.6749 6.6256 60.5583C4.39413 59.6189 2.5417 57.958 1.36437 55.841C0.187047 53.7239 -0.247223 51.273 0.130968 48.88C1.86287 38.805 11.4966 35.5983 14.5707 34.6666C16.3896 34.1935 18.2323 33.8174 20.0911 33.54C23.2579 32.9764 26.4653 32.6721 29.6815 32.63C33.0371 32.63 36.3926 32.63 39.7482 32.5C40.6574 32.5 40.2894 30.3333 40.2894 29.7483C40.2894 26.3683 40.4193 23.4433 40.1379 20.0633C39.8781 17.0733 40.0296 15.1666 39.7915 12.155C39.5317 -1.84171 41.1337 -4.81004 46.5676 10.1183C48.6025 15.6 50.486 20.9516 50.6808 21.45C52.1096 25.0466 53.2787 28.7083 54.4261 32.3916C54.6425 33.02 56.093 37.3966 56.5909 38.48C57.6301 41.3616 58.3012 44.3516 59.1238 47.2766C59.6867 49.2483 60.964 55.38 59.7949 57.3299C56.2013 64.4583 33.8164 64.1116 31.8464 64.1116M29.2269 53.755C30.7122 53.8416 32.2013 53.8416 33.6865 53.755C35.661 53.7816 37.5908 53.1657 39.1853 52C39.6033 51.7225 39.9337 51.3317 40.1379 50.8733C40.5828 49.7452 40.7318 48.522 40.5709 47.32C40.3936 46.3509 39.9258 45.4587 39.2298 44.7621C38.5337 44.0655 37.6423 43.5974 36.6741 43.42C35.0193 42.934 33.3101 42.6574 31.5866 42.5966C28.4162 42.4207 25.2443 42.9153 22.2776 44.0483C21.6932 44.3425 21.1737 44.7511 20.7498 45.2497C20.3259 45.7484 20.0062 46.3271 19.8097 46.9516C19.5051 47.636 19.4124 48.3961 19.5436 49.1338C19.6748 49.8714 20.0239 50.5528 20.5457 51.09C21.8031 52.4794 23.5313 53.352 25.3951 53.5383C26.6723 53.6899 27.9496 53.6683 29.2269 53.7116" fill="#333333"/>
<path fill-rule="evenodd" clip-rule="evenodd" d="M158.13 54.1045C158.13 54.4078 158.13 55.1878 158.455 55.2312C160.62 54.8412 160.62 54.0828 160.62 53.0645C160.443 50.5667 160.487 48.0581 160.75 45.5678C160.829 43.4693 161.445 41.4263 162.541 39.6353C163.637 37.8443 165.174 36.3656 167.006 35.3412C169.972 33.6728 178.393 32.0478 183.524 35.7745C185.373 37.3085 186.772 39.3152 187.573 41.5812C188.001 42.4412 188.209 43.3941 188.179 44.3545C187.897 45.4812 182.182 46.9545 180.125 47.4528C177.614 48.0595 175.103 48.6228 172.657 49.3378C171.661 49.6195 170.08 49.9662 169.084 50.2912C168.089 50.6162 167.677 50.5945 167.764 51.9378C167.851 53.2812 168.002 57.5278 170.622 57.9828C173.007 58.3525 175.447 58.0911 177.701 57.2245C180.725 55.8733 183.437 53.9112 185.667 51.4612C188.222 48.6878 189.694 48.7095 190.452 49.0995C190.79 49.2802 191.088 49.5266 191.33 49.8242C191.572 50.1218 191.751 50.4647 191.859 50.8328C192.292 52.0895 192.898 56.4445 196.189 57.4845C197.435 57.8655 198.709 58.1481 199.999 58.3295C201.024 58.4017 202.054 58.3727 203.073 58.2428C206.688 58.0045 207.403 56.2495 207.013 54.4295C206.623 52.6095 199.393 49.8362 197.076 48.6445C195.626 47.9728 190.95 45.8062 191.339 41.4728C191.428 39.9601 191.951 38.5051 192.846 37.2828C193.74 36.0605 194.969 35.1229 196.384 34.5828C198.96 33.1095 205.909 33.4778 208.745 34.5828C209.719 34.9728 215.608 36.3162 213.832 39.9128C213.573 40.4328 213.399 40.9095 212.815 41.1478C212.142 41.4713 211.383 41.5701 210.65 41.4295C208.94 41.0828 207.468 40.2378 205.757 39.8695C203.878 39.3478 201.897 39.3105 199.999 39.7612C199.631 39.9128 197.076 41.5162 199.999 43.3145C200.259 43.4662 210.044 47.6478 212.36 50.1178C213.723 51.5257 214.498 53.4012 214.525 55.3612C214.592 57.4018 213.901 59.395 212.586 60.9556C211.271 62.5163 209.424 63.5336 207.403 63.8112C204.065 64.3351 200.674 64.4225 197.314 64.0712C194.953 63.7386 192.693 62.8958 190.69 61.6012C189.602 60.6975 188.735 59.556 188.157 58.2645C187.941 57.7662 187.876 57.7445 187.486 58.1562C186.565 59.2024 185.534 60.1467 184.412 60.9728C182.885 62.0383 181.196 62.8503 179.411 63.3778C176.048 64.3306 172.524 64.574 169.063 64.0928C167.412 63.601 165.869 62.7996 164.517 61.7312C163.824 61.1028 163.326 59.6728 162.352 60.2795C161.854 60.4528 158.693 62.2295 156.788 63.0962C155.424 63.7028 153.562 63.5945 153.259 62.3378C152.729 60.059 152.388 57.7399 152.242 55.4045C152.112 52.9995 151.203 44.3978 151.051 42.4045C150.705 39.5228 148.237 39.5445 146.721 39.7178C145.206 39.8912 141.764 40.3678 140.768 41.8845C140.238 42.7016 139.973 43.6627 140.01 44.6362C140.01 48.0595 140.313 58.6978 140.551 61.4712C140.551 62.9878 140.054 63.6378 138.387 64.0278C137.787 64.1475 137.179 64.2127 136.568 64.2228C134.944 64.2228 134.252 63.6595 134.143 62.1862C134.014 60.0195 134.143 59.2828 134.143 57.0512C134.143 57.0512 134.143 56.1195 132.476 57.6362C130.809 59.1528 129.251 60.2795 127.714 61.6878C126.94 62.4037 126.115 63.0626 125.246 63.6595C125 63.9029 124.693 64.0741 124.357 64.1543C124.021 64.2346 123.669 64.2208 123.341 64.1145C121.804 63.7462 121.609 60.4745 121.522 59.4995C121.219 55.8162 120.894 52.2412 120.613 48.5578C120.375 45.5678 120.137 42.4912 120.028 39.5012C119.899 37.7404 120.212 35.9753 120.938 34.3662C121.609 33.5212 124.683 32.6762 125.679 34.9078C125.908 35.6673 126.032 36.4547 126.047 37.2478C126.285 41.3645 126.978 54.4512 127.389 54.4078C129.448 53.0974 131.351 51.5564 133.061 49.8145C133.638 48.9545 133.898 47.9205 133.797 46.8895C133.797 43.8128 133.559 40.3895 133.645 37.3128C133.645 36.4895 133.645 35.4928 133.645 34.6695C133.791 34.1776 134.036 33.721 134.366 33.3283C134.696 32.9357 135.103 32.6154 135.563 32.3876C136.022 32.1598 136.523 32.0294 137.035 32.0045C137.547 31.9795 138.059 32.0607 138.538 32.2428C138.751 32.2734 138.949 32.3723 139.101 32.5247C139.253 32.677 139.352 32.8746 139.382 33.0878C139.382 33.6945 139.577 34.3012 139.707 34.9078C139.837 35.5145 140.054 35.5795 140.595 35.4062C140.84 35.3214 141.073 35.2049 141.287 35.0595C143.206 34.1101 145.298 33.5645 147.436 33.4565C149.573 33.3484 151.71 33.6801 153.714 34.4312C154.461 34.7378 155.116 35.2318 155.616 35.8656C156.117 36.4993 156.446 37.2515 156.572 38.0495C156.94 40.9528 157.069 43.3795 157.394 46.4345C157.394 47.2578 158.174 54.0395 158.174 54.1045M172.332 39.4362C171.444 39.8045 167.829 40.8662 167.353 44.3762C167.353 44.5062 167.353 45.2428 167.526 45.3078C167.807 45.7195 170.751 44.6795 171.379 44.5278C173.804 43.9212 176.337 43.2495 178.761 42.6645C179.496 42.4829 180.218 42.2586 180.926 41.9928C181.511 41.8412 181.078 41.3428 180.926 41.0828C179.454 37.2478 172.851 39.1762 172.267 39.4362" fill="#333333"/>
<path fill-rule="evenodd" clip-rule="evenodd" d="M126.711 24.505C126.685 25.4949 126.433 26.4657 125.975 27.3434C125.659 27.8308 125.188 28.1981 124.639 28.3867C124.09 28.5752 123.493 28.574 122.944 28.3834C122.482 28.2851 122.047 28.0841 121.672 27.7954C121.298 27.5067 120.992 27.1375 120.779 26.715C120.382 25.9637 120.224 25.1093 120.324 24.2654C120.425 23.4216 120.78 22.6285 121.342 21.9917C121.624 21.6605 121.99 21.4114 122.402 21.2703C122.813 21.1293 123.255 21.1015 123.68 21.19C124.501 21.271 125.263 21.6556 125.815 22.2688C126.368 22.8819 126.672 23.6793 126.668 24.505" fill="#333333"/>
<path fill-rule="evenodd" clip-rule="evenodd" d="M119.913 32.7817C119.913 32.0667 119.631 31.5034 118.874 31.3084C118.549 31.3084 117.488 30.7017 116.709 31.3084C115.781 31.9878 114.963 32.8063 114.284 33.7351C111.489 37.365 109.134 41.3144 107.27 45.5001C106.426 47.3417 105.473 49.1617 104.564 50.9817C104.37 51.3351 104.153 51.6753 103.914 52.0001C103.395 52.7151 103.265 52.7151 102.637 52.0001C102.211 51.5005 101.84 50.9556 101.533 50.3751C99.2383 46.0417 96.8569 41.7084 94.757 37.2234C94.324 36.3134 93.8261 35.4034 93.3498 34.4934C93.3063 34.367 93.2403 34.2495 93.1549 34.1467C92.8762 33.87 92.5211 33.683 92.1354 33.6096C91.7497 33.5363 91.3508 33.5799 90.9901 33.7351C90.2757 33.9951 88.4355 34.6017 86.4655 35.3817C84.9727 35.9327 83.5251 36.5992 82.1357 37.3751C81.6595 37.6134 80.9234 38.0467 80.4255 38.2851C79.467 36.5826 78.3738 34.9596 77.1565 33.4317C76.2243 32.4324 74.9642 31.8018 73.6061 31.6551C72.6288 31.56 71.6427 31.6185 70.6835 31.8284C68.1595 32.5133 65.8215 33.7573 63.8425 35.4684C60.487 38.2201 64.7518 40.9501 66.8084 39.5201C67.8772 38.7126 69.0063 37.9883 70.1856 37.3534C70.6924 37.0777 71.265 36.9461 71.8412 36.9728C72.4175 36.9996 72.9754 37.1836 73.4546 37.5051C74.2516 38.2272 74.8166 39.1697 75.0782 40.2134C75.2514 40.6901 75.2298 40.8634 74.7319 41.1234C74.2339 41.3834 71.1598 43.1601 70.6186 43.5934C67.4146 45.7601 63.0848 47.9267 61.7209 54.9684C61.3962 56.6151 61.2014 61.4684 65.4012 62.9634C68.0433 63.7637 70.847 63.8682 73.5412 63.2667C76.4349 62.6204 79.2303 61.5932 81.8543 60.2117L82.1357 60.06C82.8501 59.7134 82.9584 59.7567 83.3264 60.4501C83.7911 61.3232 84.3269 62.1566 84.9284 62.9417C85.3737 63.3182 85.9073 63.5754 86.4791 63.6891C87.0508 63.8028 87.6421 63.7693 88.1974 63.5917C92.1375 62.2267 88.1974 55.5317 88.0242 55.1634C86.5954 52 84.4305 47.4717 82.8501 44.1351C82.5904 43.6367 83.413 43.2251 84.0408 42.9001C85.6245 41.9533 87.3284 41.2245 89.1066 40.7334C89.7777 40.4734 89.9293 40.7334 90.254 41.2967C91.4014 43.4634 92.6354 46.7784 93.6962 49.0101C95.3848 52.5851 97.3981 56.8534 99.3898 60.2984C99.9463 61.2613 100.623 62.1495 101.403 62.9417C101.885 63.4438 102.517 63.7763 103.204 63.8895C103.891 64.0028 104.595 63.8907 105.213 63.57C105.832 63.1907 106.346 62.6617 106.707 62.0317C107.53 60.2334 108.049 59.475 108.872 57.6984C109.37 56.355 113.83 46.2801 115.691 43.0734C117.215 40.266 118.574 37.3722 119.761 34.4067C119.985 33.9114 120.075 33.366 120.021 32.8251M74.9483 57.5034C71.1598 59.0417 65.9208 58.5434 68.2156 53.7117C69.4528 51.4644 71.2502 49.5759 73.4329 48.2301C76.1823 46.3667 77.3297 45.7167 77.7627 46.8217C77.7627 46.9301 79.6894 50.5051 80.2739 52.1734C81.8326 55.7051 75.4896 57.3084 74.9916 57.5034" fill="#333333"/>
</g>
<defs>
<clipPath id="clip0_1_552">
<rect width="216.488" height="65" fill="white"/>
</clipPath>
</defs>
</svg>
