<svg width="133" height="148" viewBox="0 0 133 148" fill="none" xmlns="http://www.w3.org/2000/svg">
<path d="M132.139 34.3506L126.248 19.7442C126.182 19.5858 126.147 19.4158 126.147 19.244C126.147 19.0723 126.182 18.9023 126.248 18.7439C127.151 16.6275 127.455 14.3028 127.126 12.0249C126.798 9.74694 125.849 7.60363 124.384 5.82992L119.968 0.471415C119.756 0.210976 119.45 0.0444394 119.117 0.0076881C118.783 -0.0290637 118.448 0.0669121 118.184 0.274937C118.064 0.369948 117.963 0.486558 117.886 0.618774C117.695 0.955677 117.582 1.33131 117.556 1.71782C117.529 2.10433 117.59 2.49179 117.734 2.85149L119.21 6.53992C119.866 8.16596 120.191 9.90631 120.168 11.6596C120.145 13.4129 119.774 15.1441 119.076 16.7523L105.251 48.948C104.886 49.8 104.2 50.4739 103.342 50.8235C103.033 50.9485 102.687 50.9485 102.377 50.8235C102.068 50.6989 101.819 50.4587 101.683 50.1537C101.616 49.9965 101.581 49.8268 101.581 49.6558C101.581 49.4848 101.616 49.3151 101.683 49.1579L105.086 41.2541C106.483 38.0189 106.955 34.4581 106.447 30.9702C105.939 27.4822 104.471 24.2045 102.209 21.5035L100.015 18.8689C99.7966 18.6087 99.4844 18.4454 99.1459 18.4144C98.8078 18.3835 98.4711 18.4874 98.2089 18.7037C98.0479 18.8362 97.9225 19.0065 97.8432 19.1994L97.7183 19.503C97.5956 19.8067 97.5956 20.1461 97.7183 20.4497L98.753 23.0486C99.6909 25.3731 100.16 27.8605 100.133 30.3674C100.107 32.8743 99.5843 35.3511 98.5969 37.655L91.6707 53.7796C91.1061 55.0929 90.0442 56.1289 88.7183 56.6598C88.403 56.784 88.0511 56.779 87.7394 56.6464C87.4277 56.5133 87.1801 56.2633 87.0504 55.9498C85.7392 52.6945 86.1272 41.5488 93.254 37.6416L94.6633 36.6949C95.9419 35.8389 96.9485 34.633 97.5622 33.2208C97.621 33.0617 97.6478 32.8925 97.6407 32.7229C97.6335 32.5534 97.593 32.387 97.5211 32.2333C97.4493 32.0796 97.3481 31.9417 97.2223 31.8276C97.097 31.7135 96.9503 31.6255 96.7906 31.5686C96.5507 31.4804 96.2902 31.4649 96.0414 31.524L91.2738 32.685C79.1698 36.9182 78.6926 52.1274 80.2313 58.9149C80.2924 59.2056 80.2487 59.5083 80.1073 59.7691C79.9659 60.0303 79.7362 60.2321 79.4597 60.3393L72.5202 63.1257C71.6399 63.474 70.702 63.6527 69.7551 63.6527H63.2438C62.2974 63.6522 61.3591 63.4736 60.4787 63.1257L53.5169 60.3304C53.2404 60.2241 53.0111 60.0214 52.8711 59.7602C52.7311 59.4985 52.6896 59.1953 52.7543 58.9059C54.3018 52.1006 53.8112 36.8869 41.743 32.6314L36.9799 31.4748C36.8141 31.4335 36.6418 31.4253 36.4729 31.4507C36.304 31.4761 36.1417 31.5348 35.9955 31.6231C35.8492 31.7115 35.7218 31.8279 35.6206 31.9657C35.5193 32.1034 35.4463 32.2599 35.4056 32.426C35.3383 32.6899 35.357 32.9683 35.4591 33.2208C36.0796 34.624 37.0828 35.8235 38.3535 36.6815L39.7584 37.6282C46.894 41.5354 47.2776 52.6811 45.9575 55.9364C45.829 56.2508 45.5815 56.5017 45.2693 56.6344C44.9571 56.7674 44.6048 56.7719 44.2895 56.6464C42.9643 56.1141 41.9031 55.0786 41.3371 53.7662L34.411 37.6594C33.4204 35.3559 32.8957 32.8785 32.8674 30.3706C32.8391 27.8627 33.3077 25.374 34.246 23.0486L35.3074 20.4631C35.4324 20.1538 35.4324 19.8079 35.3074 19.4986L35.1781 19.1949C35.0479 18.8811 34.7986 18.632 34.485 18.5022C34.1714 18.3724 33.8191 18.3726 33.5057 18.5028C33.3149 18.5834 33.1455 18.7072 33.0106 18.8645L30.7807 21.4991C28.5277 24.1941 27.0655 27.462 26.5569 30.9394C26.0482 34.4169 26.5131 37.9674 27.8997 41.1961L31.084 48.6355C31.1627 48.8279 31.2027 49.0338 31.2018 49.2414C31.2008 49.4495 31.159 49.6549 31.0786 49.8465C30.9983 50.038 30.881 50.2122 30.7334 50.3582C30.5859 50.5042 30.411 50.6199 30.2188 50.6985C30.0352 50.7704 29.8405 50.8097 29.6435 50.8146C29.3039 50.8177 28.9712 50.719 28.6882 50.5315C28.4053 50.3435 28.185 50.0751 28.0558 49.7607L13.8958 16.7166C13.2047 15.11 12.8389 13.382 12.8198 11.6328C12.8006 9.88354 13.1285 8.14792 13.7843 6.52652L15.2605 2.86488C15.4035 2.50486 15.4638 2.11721 15.4368 1.7307C15.4097 1.34419 15.2961 0.968729 15.1044 0.632171C14.9301 0.342588 14.649 0.133372 14.3217 0.0498006C13.9946 -0.0337715 13.6477 0.0150244 13.3562 0.185626C13.2228 0.262998 13.1048 0.364437 13.0083 0.484807L8.59751 5.84331C7.13598 7.61613 6.18911 9.75703 5.86033 12.0321C5.53156 14.3072 5.83357 16.629 6.7333 18.7439C6.79953 18.9023 6.83365 19.0723 6.83365 19.244C6.83365 19.4158 6.79953 19.5858 6.7333 19.7442L0.864163 34.3506C0.276605 35.806 -0.0168592 37.3637 0.000747818 38.9334C0.0183548 40.5032 0.346683 42.0539 0.966739 43.4958C2.22173 46.4152 4.5829 48.7172 7.53161 49.8947L44.3832 64.6306C44.5391 64.6927 44.6811 64.7847 44.8015 64.9016C44.9219 65.0191 45.0178 65.1588 45.0842 65.3129C45.1502 65.4674 45.1855 65.6331 45.1877 65.801C45.1899 65.9689 45.1592 66.1359 45.0967 66.2917C44.9763 66.5784 44.7582 66.8124 44.4813 66.9526L43.7811 67.3009C43.5057 67.4411 43.1892 67.4777 42.8892 67.4036L32.2525 64.769C29.422 64.063 26.4495 64.176 23.6807 65.095L19.6356 66.4346C19.0117 66.6391 18.4943 67.083 18.1974 67.6693C17.9005 68.2556 17.8483 68.9357 18.0524 69.5604C18.1369 69.8154 18.2619 70.0552 18.4225 70.2704L24.8045 78.7547C25.7783 80.0359 27.0352 81.0741 28.4767 81.7876C29.9182 82.5012 31.5052 82.8705 33.1132 82.8674H37.8362C38.9035 82.8669 39.9275 82.4449 40.686 81.693L41.1721 81.2062C41.4128 80.9669 41.7382 80.8325 42.0775 80.8325C42.4167 80.8325 42.7422 80.9669 42.9828 81.2062C43.2224 81.442 43.3588 81.7631 43.3619 82.0993V84.6535C43.3633 85.9874 43.759 87.2908 44.4992 88.4L50.2032 96.9111C50.4748 97.3166 50.6501 97.7792 50.7152 98.2628C50.7799 98.7469 50.7331 99.239 50.5779 99.702L40.7306 129.098C40.3815 130.13 40.4019 131.252 40.7884 132.272C41.1749 133.291 41.9034 134.144 42.849 134.684C42.849 134.684 58.8553 147.929 66.4861 147.929C74.1169 147.929 90.1232 134.689 90.1232 134.689C91.0624 134.144 91.7863 133.293 92.172 132.277C92.5578 131.261 92.5823 130.143 92.2416 129.111L82.3898 99.7154C82.2355 99.2523 82.1891 98.7603 82.2543 98.2766C82.3194 97.7926 82.4938 97.3304 82.7645 96.9245L88.4998 88.4134C89.241 87.3064 89.6384 86.0043 89.6415 84.6714V82.0949C89.6442 81.8426 89.7209 81.5965 89.8627 81.3875C90.0041 81.1786 90.2044 81.0165 90.4376 80.9209C90.6713 80.8258 90.9277 80.8017 91.1748 80.8512C91.4219 80.9013 91.6489 81.0232 91.8268 81.2018L92.313 81.684C93.072 82.4378 94.0982 82.8598 95.1673 82.8584H99.8991C101.506 82.8602 103.091 82.4887 104.531 81.7733C105.97 81.0584 107.224 80.0189 108.194 78.7369L114.581 70.2526C114.777 69.9918 114.92 69.6944 115.001 69.3782C115.082 69.0616 115.1 68.7325 115.054 68.4092C115.007 68.0859 114.897 67.7751 114.73 67.4947C114.564 67.2138 114.343 66.9691 114.081 66.774C113.866 66.6132 113.627 66.4882 113.372 66.4034L109.358 65.0637C106.587 64.1448 103.611 64.0318 100.778 64.7378L90.1499 67.3679C89.8507 67.4456 89.5331 67.4108 89.258 67.2697L88.5533 66.9213C88.3335 66.812 88.1497 66.6414 88.0248 66.4302C87.8995 66.2185 87.8384 65.9756 87.8482 65.73C87.858 65.4844 87.9388 65.2468 88.0806 65.0463C88.2224 64.8458 88.4191 64.6904 88.647 64.5993L125.218 49.9885C127.392 49.1499 129.288 47.7174 130.69 45.8535C131.89 44.2184 132.653 42.3035 132.906 40.2905C133.16 38.2774 132.896 36.2328 132.139 34.3506ZM15.7377 45.2551L10.7026 43.2368C9.98644 42.9536 9.33552 42.5272 8.78955 41.9835C8.24358 41.44 7.81401 40.7906 7.52715 40.0752C7.18357 39.2307 7.18357 38.2851 7.52715 37.4406L9.87748 31.6356C9.97283 31.401 10.1352 31.1999 10.3442 31.0573C10.5533 30.9148 10.7998 30.8372 11.0527 30.8344C11.3056 30.8315 11.5537 30.9034 11.766 31.0412C11.9782 31.179 12.145 31.3765 12.2457 31.6088L17.3655 43.5359C17.473 43.7674 17.5091 44.0257 17.469 44.2777C17.429 44.5299 17.3147 44.7639 17.1408 44.9506C16.9668 45.1372 16.7413 45.2676 16.4928 45.3252C16.2445 45.3824 15.9846 45.3645 15.7466 45.273L15.7377 45.2551ZM58.4227 109.508C58.0793 108.941 57.7002 108.289 57.4014 107.771C57.0535 107.173 56.8707 106.493 56.8707 105.802V103.797C56.8698 103.484 56.9875 103.182 57.2007 102.953C57.6066 102.506 58.3157 101.729 58.8241 101.216C58.9797 101.058 59.0921 100.862 59.1492 100.647C59.2063 100.433 59.2063 100.207 59.1497 99.9923L57.8117 94.9508C57.3225 93.132 56.3908 91.4629 55.1001 90.0924L53.1958 88.0562C53.0361 87.8852 52.8323 87.7619 52.6071 87.699L51.5501 87.4221C50.8245 87.2328 50.1546 86.8733 49.5954 86.3732C49.0365 85.873 48.6039 85.247 48.3346 84.5464C47.9421 83.5238 47.5095 82.3449 47.1973 81.3848C47.1442 81.2263 47.1233 81.0589 47.1353 80.8919C47.1469 80.7253 47.192 80.5623 47.2669 80.4127C47.3418 80.2636 47.4457 80.1305 47.5724 80.0216C47.699 79.9122 47.8458 79.8291 48.0045 79.7773C48.1374 79.7367 48.2757 79.7157 48.4148 79.7148H48.5353C49.6685 79.7134 50.7893 79.9519 51.8244 80.4132C52.8595 80.8749 53.7858 81.5501 54.5427 82.394L55.6754 83.6667L55.8628 83.9391C55.8628 83.9391 58.3023 88.467 58.9579 90.0522C59.4529 91.2356 60.5456 94.9062 60.5456 94.9062C60.6129 95.1049 60.6522 95.3125 60.6615 95.5224C60.7374 96.7682 60.9693 101.216 60.9693 101.216L61.1878 104.007C61.2061 104.233 61.2841 104.449 61.4144 104.635C61.5446 104.82 61.7221 104.967 61.9281 105.061L63.4043 105.739C63.585 105.821 63.7437 105.945 63.8677 106.101C63.9917 106.255 64.0773 106.438 64.1179 106.632C64.1518 106.802 64.1514 106.977 64.117 107.146C64.0831 107.315 64.0158 107.476 63.919 107.62C63.8227 107.763 63.6987 107.885 63.5542 107.98C63.4101 108.076 63.2482 108.141 63.0788 108.173C62.0744 108.364 61.1642 108.889 60.4965 109.664C60.3654 109.813 60.2013 109.929 60.0175 110.003C59.8338 110.078 59.6349 110.108 59.4373 110.093C59.2397 110.077 59.0484 110.016 58.8785 109.914C58.7086 109.811 58.565 109.671 58.4584 109.504L58.4227 109.508ZM71.4053 113.576C70.7006 114.103 69.4965 115.014 68.9078 115.46C68.6866 115.634 68.4132 115.728 68.1318 115.728H64.8582C64.5786 115.727 64.3074 115.633 64.0867 115.46C63.498 115.014 62.3028 114.085 61.5892 113.576C61.4518 113.479 61.335 113.355 61.2462 113.212C61.157 113.069 61.0973 112.91 61.0701 112.744C61.0433 112.578 61.0495 112.407 61.0888 112.244C61.128 112.08 61.1998 111.926 61.2993 111.79L61.3974 111.669L61.607 111.446C62.445 110.531 63.5292 109.878 64.7289 109.566L66.1605 109.187C66.375 109.129 66.6016 109.129 66.8161 109.187L68.2566 109.566C69.455 109.882 70.5383 110.534 71.3785 111.446L71.5881 111.669C71.8125 111.917 71.9306 112.244 71.9164 112.578C71.9021 112.912 71.7572 113.227 71.5123 113.456C71.4771 113.488 71.4401 113.518 71.4008 113.545L71.4053 113.576ZM85.7971 81.425C85.4894 82.3583 85.0524 83.5327 84.6644 84.5821C84.3945 85.2818 83.9628 85.907 83.4049 86.4071C82.8465 86.9072 82.1776 87.2672 81.4533 87.4578L80.3918 87.7391C80.1671 87.803 79.9637 87.9262 79.8031 88.0964C79.4196 88.5027 78.6525 89.3288 77.8943 90.1282C76.6081 91.5022 75.6796 93.1722 75.1917 94.991L73.8537 99.9967C73.794 100.211 73.7922 100.437 73.8497 100.651C73.9068 100.865 74.021 101.06 74.1793 101.216C74.7056 101.743 75.3968 102.506 75.8027 102.953C76.0105 103.185 76.1247 103.486 76.1238 103.797V105.806C76.122 106.497 75.9409 107.176 75.5975 107.775C75.2987 108.302 74.9196 108.945 74.5807 109.513C74.4937 109.66 74.3782 109.789 74.2408 109.891C74.1039 109.993 73.9478 110.067 73.7819 110.109C73.616 110.15 73.4434 110.158 73.2744 110.133C73.1054 110.107 72.943 110.048 72.7967 109.959C72.6777 109.889 72.5706 109.8 72.4801 109.696C71.8138 108.919 70.9031 108.393 69.8979 108.204C69.7284 108.174 69.5665 108.111 69.4211 108.018C69.2761 107.925 69.1508 107.805 69.0523 107.663C68.9537 107.521 68.8837 107.362 68.8467 107.194C68.8097 107.025 68.8061 106.851 68.8364 106.681C68.8774 106.487 68.9635 106.305 69.0875 106.15C69.2115 105.995 69.3698 105.871 69.55 105.788L71.0306 105.11C71.2354 105.014 71.412 104.866 71.5426 104.681C71.6729 104.497 71.7536 104.281 71.7754 104.056L71.9895 101.265C71.9895 101.265 72.217 96.7995 72.2928 95.5715C72.3057 95.3616 72.3463 95.1544 72.4132 94.9553C72.4132 94.9553 73.5192 91.2668 74.0009 90.1014C74.6565 88.5251 77.1005 83.9882 77.1005 83.9882C77.1629 83.8989 77.2253 83.8096 77.2833 83.7158L78.4161 82.4432C79.1743 81.5987 80.1011 80.924 81.1371 80.4623C82.1731 80.0006 83.2943 79.7626 84.428 79.7639H84.5439C84.7112 79.7635 84.8766 79.7961 85.031 79.8595C85.1857 79.9233 85.3257 80.0171 85.4439 80.1354C85.5621 80.2538 85.6558 80.394 85.7195 80.5489C85.7833 80.7034 85.8154 80.8691 85.815 81.0366C85.8163 81.1638 85.7967 81.2906 85.757 81.4116L85.7971 81.425ZM125.463 40.1333C125.175 40.8476 124.745 41.4958 124.199 42.0386C123.654 42.5813 123.003 43.0072 122.287 43.2903L117.292 45.2551C116.977 45.3788 116.626 45.373 116.314 45.2395C116.003 45.106 115.757 44.8546 115.629 44.5407C115.565 44.3864 115.532 44.221 115.532 44.0539C115.532 43.8869 115.565 43.7215 115.629 43.5672L120.749 31.6401C120.883 31.3281 121.136 31.0823 121.451 30.9567C121.767 30.8311 122.118 30.8359 122.43 30.9702C122.585 31.0341 122.724 31.1283 122.841 31.2472C122.959 31.3661 123.051 31.5072 123.113 31.6624L125.463 37.4674C125.8 38.304 125.8 39.2387 125.463 40.0752V40.1333Z" fill="#3F4A55"/>
</svg>
