<svg width="258" height="33" viewBox="0 0 258 33" fill="none" xmlns="http://www.w3.org/2000/svg">
<path d="M15.4022 32.078C21.3334 32.078 25.7928 30.7029 29.6091 28.6411V13.9311H19.9718L16.9414 19.2467H22.5744V25.1581C20.1376 26.0287 18.3445 26.3953 15.4022 26.3953C10.8043 26.3953 6.98848 24.6084 6.98848 19.8425V12.2355C6.98848 7.8362 11.0342 5.72832 16.1376 5.72832C20.23 5.72832 23.1261 6.6446 26.1146 8.20281L28.5513 3.16206C25.0573 1.28337 20.7812 0 15.8158 0C7.17223 0 0 4.03269 0 11.4566V20.6214C0 28.2745 6.80426 32.078 15.4022 32.078ZM57.024 19.8425C57.024 24.3336 53.9436 26.3953 49.0701 26.3953H48.3804C43.5069 26.3953 40.426 24.3336 40.426 19.8425V11.8689C40.426 8.01974 43.6906 5.72832 48.3342 5.72832H49.0701C53.6218 5.72832 57.024 7.8362 57.024 11.9145V19.8425ZM64.0586 20.6214V11.09C64.0586 4.21623 57.4376 0 49.0701 0H48.3342C39.6906 0 33.3919 4.12446 33.3919 11.09V20.6214C33.3919 28.2745 39.4607 32.078 48.3804 32.078H49.0701C57.8056 32.078 64.0586 28.1827 64.0586 20.6214ZM67.6436 31.6196H93.3906V25.9374H74.632V0.458378H67.6436V31.6196ZM117.671 18.5596C117.671 23.8291 114.039 25.9374 109.901 25.9374H102.637V6.1867H110.407C114.499 6.1867 117.671 8.47765 117.671 13.5645V18.5596ZM124.614 19.7507V12.3729C124.614 4.21623 118.729 0.458378 110.407 0.458378H95.7402V31.6196H109.901C118.085 31.6196 124.614 27.9079 124.614 19.7507ZM163.627 31.6196L171.904 0.458378H164.685L159.122 23.7378L151.535 0.458378H145.237L137.742 23.646L132.041 0.458378H124.823L133.191 31.6196H140.915L148.317 9.34875L155.903 31.6196H163.627ZM175.043 31.6196H200.376V25.9374H182.031V18.5596H196.606V13.0144H182.031V6.1867H199.41V0.458378H175.043V31.6196ZM203.088 31.6196H228.835V25.9374H210.076V0.458378H203.088V31.6196ZM231.765 31.6196H257.512V25.9374H238.753V0.458378H231.765V31.6196Z" fill="black"/>
</svg>
