<svg width="236" height="39" viewBox="0 0 236 39" fill="none" xmlns="http://www.w3.org/2000/svg">
<path d="M235.151 0.714722L224.001 19.3571L236 38.2852H224.679L216.522 24.8008L208.367 38.2852H197.044L209.044 19.3571L197.895 0.714722H208.293L216.522 13.9966L224.753 0.714722H235.151ZM97.9681 38.2852L96.083 32.8533H82.5928L80.5476 38.2852H69.891L85.4634 0.714722H93.2865L108.723 38.2852H97.9557H97.9681ZM89.455 14.6518L89.2947 14.6042L85.3031 25.2416H93.4466L89.455 14.6518ZM112.53 38.2852V0.714722H125.663C129.815 0.667073 132.907 1.22694 134.953 2.13225C139.153 4.01435 141.777 8.3265 141.777 13.401C141.777 18.4755 137.786 26.5042 126.662 26.5042H122.041V38.2852H112.543H112.53ZM126.279 18.0825C130.27 18.0825 132.267 16.7602 132.267 13.5678C132.267 10.3754 130.32 9.14843 125.909 9.14843H122.029V18.0825H126.279ZM146.213 38.2852V0.714722H156.143V29.8515H167.637V38.2852H146.213ZM172.023 38.2852V0.714722H193.608V9.14843H181.535V14.9854H193.238V23.4071H181.535V29.8515H193.608V38.2852H172.023ZM20.1677 0C9.0305 0 0 8.73151 0 19.4999C0 30.2684 9.0305 39 20.1677 39C31.3049 39 40.3354 30.2684 40.3354 19.4999C40.3354 8.73151 31.3049 0 20.1677 0ZM20.1677 29.7324C14.3281 29.7324 9.5849 25.1462 9.5849 19.4999C9.5849 13.8536 14.3281 9.26755 20.1677 9.26755C26.0074 9.26755 30.7505 13.8536 30.7505 19.4999C30.7505 25.1462 26.0196 29.7324 20.1677 29.7324ZM66.0841 38.2852V29.8515H54.5896V0.714722H44.6598V38.2852H66.0841Z" fill="black"/>
</svg>
