<svg width="35" height="39" viewBox="0 0 35 39" fill="none" xmlns="http://www.w3.org/2000/svg">
<path d="M3.19931 38.7291C5.72906 39.6413 8.7441 38.1589 9.64462 35.6492C10.9485 32.7804 11.6174 28.9911 15.8334 25.7381L17.6044 24.3716L19.1857 25.5973C23.3938 28.8585 24.0536 32.6497 25.3516 35.5217C26.2462 38.0333 29.2584 39.5227 31.7902 38.616C34.3484 37.873 35.4979 34.8454 34.7985 32.4325C34.2748 29.9708 31.7316 27.926 29.2367 28.4884C26.6384 29.0734 27.1087 29.9123 26.125 30.1884C24.8675 30.5418 24.0738 26.8153 20.3732 21.7098L20.264 21.5604L30.2658 7.4966C31.5178 5.46119 32.2691 2.75302 30.6458 0.17472L17.5711 17.8948L4.42994 -2.67252e-06C2.8007 2.57517 3.54645 5.2849 4.79411 7.32344L14.8684 21.5585L14.6539 21.8494C10.9418 26.9456 10.1394 30.672 8.88264 30.3156C7.90019 30.0367 8.37242 29.1994 5.77498 28.6081C3.28124 28.0403 0.734071 30.0796 0.204846 32.5401C-0.500129 34.9507 0.642635 37.9814 3.19931 38.7291ZM26.395 33.2511C26.3946 30.3908 30.2124 29.0921 32.3645 31.2395C33.8374 32.7102 33.8449 35.7409 31.8333 36.7892C29.4421 38.286 26.2363 35.8828 26.395 33.2511ZM2.64158 31.3522C4.79727 29.2095 8.61308 30.5164 8.60556 33.3767C8.75875 36.0076 5.54737 38.4054 3.16012 36.9031C1.15088 35.8501 1.16513 32.8194 2.64158 31.3522Z" fill="#CCCCCC"/>
</svg>
