<svg width="170" height="69" viewBox="0 0 170 69" fill="none" xmlns="http://www.w3.org/2000/svg">
<path d="M69.6523 5.36326L73.1127 3.97949V33.2161L69.6523 31.6586V5.36326Z" fill="white"/>
<path d="M99.7553 5.36326L96.2949 3.97949V33.2161L99.7553 31.6586V5.36326Z" fill="white"/>
<path d="M79.8605 0H76.0547V36.8482H79.8605V0Z" fill="white"/>
<path d="M93.009 0H89.2031V36.8482H93.009V0Z" fill="white"/>
<path d="M6.73433 61.9335C6.73433 63.0983 6.8741 64.9703 6.39126 65.9953C5.7263 67.4015 4.42179 68.329 2.81233 68.329C2.06689 68.329 1.66876 68.2486 1.0038 67.9267C0.461662 67.6641 0 66.9398 0 66.3596C0 65.6777 0.423543 64.9915 1.16474 64.9915C1.84665 64.9915 2.32949 65.4532 2.32949 66.1393C2.32949 66.4612 2.13042 66.7238 1.98642 66.8847C1.88477 67.0245 1.72382 67.1643 1.745 67.4057C1.78312 67.8081 2.58785 67.8293 2.82927 67.8293C3.91354 67.8293 4.15496 66.9271 4.15496 66.0207V53.6617H2.00336V53.1577H8.6784V53.6617H6.7301V61.942L6.73433 61.9335Z" fill="white"/>
<path d="M8.94531 59.5232C8.94531 56.2068 11.8593 52.8481 15.218 52.8481C18.5767 52.8481 21.4695 56.2068 21.4695 59.5232C21.4695 63.1995 19.1993 66.8801 15.218 66.8801C11.2367 66.8801 8.94531 63.2038 8.94531 59.5232ZM18.5131 57.3928C18.5131 56.6685 18.4115 55.9866 18.2124 55.3809C17.8101 54.1569 16.9884 53.3522 15.218 53.3522C13.4476 53.3522 12.5666 54.1569 12.2024 55.3809C12.0202 55.9824 11.9016 56.6685 11.9016 57.3928V61.7764C11.9016 62.56 11.9398 63.3224 12.1219 64.0254C12.4819 65.4147 13.329 66.3761 15.218 66.3761C17.107 66.3761 17.9498 65.4104 18.3141 64.0254C18.4962 63.3224 18.5131 62.56 18.5131 61.7764V57.3928Z" fill="white"/>
<path d="M22.9935 66.6982H22.6504V62.6957H23.2349C23.6584 64.6059 24.802 66.3763 26.9324 66.3763C28.5207 66.3763 29.9269 65.2115 29.9269 63.5639C29.9269 61.6961 28.2581 61.3319 26.7503 60.8109C26.3479 60.6711 25.9456 60.5271 25.5432 60.4085C23.6754 59.8452 22.7478 58.4391 22.7478 56.5289C22.7478 54.4197 24.3149 52.8525 26.4072 52.8525C27.572 52.8525 28.419 53.1321 29.3424 53.8563L30.1047 53.0516H30.4648V56.8508H29.821C29.6007 54.9406 28.3555 53.3523 26.3437 53.3523C25.0561 53.3523 23.8533 54.2968 23.8533 55.6437C23.8533 57.1896 24.9206 57.3506 26.1658 57.6936C26.6698 57.8334 27.0722 57.9732 27.411 58.0748C27.8134 58.1977 28.3174 58.3374 28.7367 58.5365C30.4266 59.3412 31.0281 60.6669 31.0281 62.4754C31.0281 65.0082 29.3805 66.8761 26.7884 66.8761C25.8439 66.8761 24.6368 66.4949 23.9337 65.8511L22.9892 66.6939L22.9935 66.6982Z" fill="white"/>
<path d="M36.5007 53.6531V59.4218C38.4321 59.4218 39.457 59.121 39.5544 56.9695H40.1178V62.5772H39.5544C39.3723 60.3451 38.6692 59.8622 36.5007 59.9215V66.0714H39.3554C41.9686 66.0714 42.532 64.5255 42.9513 62.251H43.5358L43.3536 66.5712H31.918V66.0672H33.9298V53.6446H31.918V53.1406H43.0317L43.1503 56.7577H42.587C42.1635 54.8263 41.4011 54.0851 40.3761 53.8014C39.8721 53.6616 39.2919 53.6404 38.6269 53.6404H36.4965L36.5007 53.6531Z" fill="white"/>
<path d="M45.4883 53.1532H51.9812C54.5352 53.1532 57.5889 53.6741 57.5889 56.8507C57.5889 59.663 54.6538 60.4889 52.3412 60.4889H50.0498V66.0755H52.1803V66.5795H45.4883V66.0755H47.4789V53.6529H45.4883V53.1489V53.1532ZM52.4005 59.9849C54.3488 59.9849 54.7512 58.4771 54.7512 56.8295C54.7512 55.381 54.6495 53.6529 52.4005 53.6529H50.0498V59.9849H52.4005Z" fill="white"/>
<path d="M63.1963 59.9256V66.0755H65.187V66.5795H58.6348V66.0755H60.6254V53.6529H58.6348V53.1489H65.187V53.6529H63.1963V59.4216H68.5414V53.6529H66.5508V53.1489H73.103V53.6529H71.1123V66.0755H73.103V66.5795H66.5508V66.0755H68.5414V59.9256H63.1963Z" fill="white"/>
<path d="M80.8457 66.5795V66.0755H82.8364V53.6529H80.8457V53.1489H87.0167C89.2276 53.1489 92.4042 53.492 92.4042 56.3848C92.4042 58.4347 90.2949 59.32 88.5669 59.5783V59.6207C90.5364 59.7604 92.8701 60.7854 92.8701 63.0768C92.8701 64.8472 91.6418 65.7917 90.2357 66.2534C88.7702 66.7362 86.8981 66.5752 85.492 66.5752H80.8499L80.8457 66.5795ZM85.4073 59.3835H87.1946C88.7236 59.3835 89.6681 58.6804 89.6681 56.389C89.6681 53.1532 87.8977 53.7165 85.4073 53.6572V59.3835ZM85.4073 66.0755H87.94C89.6893 66.0755 89.99 64.3855 89.99 62.9794C89.99 61.0904 89.3674 59.9044 87.3174 59.8833H85.4073V66.0755Z" fill="white"/>
<path d="M93.5684 66.5796V66.0756H95.1948L99.9977 52.8525H100.68L105.284 66.0756H106.893V66.5796H100.523V66.0756H102.611L101.387 62.5178H97.0457L95.8004 66.0756H97.8504V66.5796H93.5684ZM97.2659 62.0138H101.184L99.2947 56.4061L97.2659 62.0138Z" fill="white"/>
<path d="M108.342 66.5795V66.0755H110.452V53.6529C107.618 53.5132 106.754 54.877 106.39 57.4521H105.746L105.966 53.1489H117.482L117.703 57.4521H117.08C116.72 54.8812 115.856 53.5132 113.018 53.6529V66.0755H115.128V66.5795H108.334H108.342Z" fill="white"/>
<path d="M121.35 66.5795V66.0755H123.459V53.6529C120.626 53.5132 119.762 54.877 119.398 57.4521H118.754L118.974 53.1489H130.49L130.711 57.4521H130.088C129.728 54.8812 128.864 53.5132 126.026 53.6529V66.0755H128.135V66.5795H121.342H121.35Z" fill="white"/>
<path d="M136.622 66.0755H138.613V66.5795H132.061V66.0755H134.051V53.6529H132.061V53.1489H138.613V53.6529H136.622V66.0755Z" fill="white"/>
<path d="M140.583 66.6982H140.24V62.6957H140.825C141.248 64.6059 142.392 66.3763 144.522 66.3763C146.111 66.3763 147.517 65.2115 147.517 63.5639C147.517 61.6961 145.848 61.3319 144.34 60.8109C143.938 60.6711 143.535 60.5271 143.133 60.4085C141.265 59.8452 140.338 58.4391 140.338 56.5289C140.338 54.4197 141.905 52.8525 143.997 52.8525C145.162 52.8525 146.005 53.1321 146.932 53.8563L147.695 53.0516H148.059V56.8508H147.415C147.195 54.9406 145.95 53.3523 143.938 53.3523C142.65 53.3523 141.447 54.2968 141.447 55.6437C141.447 57.1896 142.515 57.3506 143.76 57.6936C144.264 57.8334 144.666 57.9732 145.005 58.0748C145.407 58.1977 145.907 58.3374 146.331 58.5365C148.021 59.3412 148.622 60.6669 148.622 62.4754C148.622 65.0082 146.975 66.8761 144.382 66.8761C143.438 66.8761 142.231 66.4949 141.528 65.8511L140.583 66.6939V66.6982Z" fill="white"/>
<path d="M152.544 66.5795V66.0755H154.653V53.6529C151.819 53.5132 150.955 54.877 150.591 57.4521H149.947L150.168 53.1489H161.684L161.904 57.4521H161.281C160.921 54.8812 160.057 53.5132 157.22 53.6529V66.0755H159.329V66.5795H152.535H152.544Z" fill="white"/>
<path d="M167.419 66.0755H169.41V66.5795H162.857V66.0755H164.848V53.6529H162.857V53.1489H169.41V53.6529H167.419V66.0755Z" fill="white"/>
</svg>
